<svg id="Capa_4" data-name="Capa 4" xmlns="http://www.w3.org/2000/svg" viewBox="0 0 252.49 252.17"><defs><style>.cls-1{fill:#e02310;}</style></defs><path class="cls-1" d="M156.63,211.25H143.28V189.12h-9.14v22.06H120.29V188.94H93.84V174.45c3.13,0,6.22,0,9.31,0,4.31,0,6.21-1.78,6.23-6.11q.08-30.44,0-60.85c0-3.7-1.44-5.21-5.26-5.39s-7.68,0-11.67,0V87.82h27.33V66.06H133.5V87.64h9.19V66h13.68v2.64c0,5.75,0,11.5,0,17.24,0,1.67.5,2.21,2.18,2.4a53.18,53.18,0,0,1,21.38,6.78c13.28,7.83,12.73,25.79,3.06,34.72-1.31,1.22-2.74,2.29-3.7,3.08,3.35,2.13,7.05,3.95,10.09,6.55a21.33,21.33,0,0,1,7.52,15.79c.47,11.53-2.42,21.72-12.94,28.22-6,3.72-12.8,5-19.75,5.31-2.44.12-4.89,0-7.54,0Zm-22.91-67.56v29.2c6.64,0,13.13.28,19.57-.09,5.14-.29,10-1.88,13.65-5.91,5.16-5.65,4.78-15.09-.94-19.13a18.93,18.93,0,0,0-5.08-2.4c-8.9-2.83-18-1.05-27.2-1.67m-.1-14.05c5.6,0,11,0,16.38,0a13,13,0,0,0,10.19-4.59c6-6.71,4.2-16.59-3.81-20-7.32-3.14-15.06-1.92-22.76-2.19Z" transform="translate(-12.65 -15.65)"/><path class="cls-1" d="M12.65,149.08V134.3a19.32,19.32,0,0,0,.43-2.37,119.26,119.26,0,0,1,7.49-34.24C41.35,42.8,95.35,9.85,153.64,16.49a122.31,122.31,0,0,1,65.56,28c40.77,33.93,56.53,88.31,38.64,138.18-16.47,45.92-49.61,73.54-97.55,83.15-4.64.93-9.39,1.31-14.09,2H131.42a17.94,17.94,0,0,0-2.16-.43,117,117,0,0,1-44.64-11.86c-38.41-19.2-61.88-49.9-70-92.14-.91-4.73-1.32-9.54-2-14.31m20.88-7.39c0,57.93,47.18,105.07,105.17,105.09a105.1,105.1,0,1,0,0-210.19c-58,0-105.17,47.17-105.17,105.1" transform="translate(-12.65 -15.65)"/></svg>