<?xml version="1.0" encoding="UTF-8"?><svg id="Capa_1" xmlns="http://www.w3.org/2000/svg" viewBox="0 0 899.48 300.63"><defs><style>.cls-1{fill:#fff;}</style></defs><rect class="cls-1" x="-36.84" y="102" width="78" height="4" transform="translate(-101.84 106.16) rotate(-90)"/><rect class="cls-1" x="53.86" y="0" width="78" height="4" transform="translate(185.72 4) rotate(180)"/><polygon class="cls-1" points="57.24 1.36 3.76 66.62 0 65.38 53.48 .13 57.24 1.36"/><rect class="cls-1" x="114.63" y="1.51" width="783.56" height=".99"/><rect class="cls-1" x="-94.94" y="201.5" width="194" height="1" transform="translate(-199.94 204.06) rotate(-90)"/><rect class="cls-1" x="1.86" y="298.19" width="783" height="1" transform="translate(786.72 597.37) rotate(180)"/><rect class="cls-1" x="798.89" y="100.57" width="197.16" height="1.44" transform="translate(998.76 -796.19) rotate(90)"/><rect class="cls-1" x="858.36" y="194.63" width="78" height="4" transform="translate(1093.99 -700.73) rotate(90)"/><rect class="cls-1" x="768.13" y="296.63" width="78" height="4"/><polygon class="cls-1" points="842.24 299.27 895.72 234.02 899.48 235.25 846 300.5 842.24 299.27"/></svg>