<?xml version="1.0" encoding="UTF-8"?><svg id="Capa_1" xmlns="http://www.w3.org/2000/svg" viewBox="0 0 250 70"><defs><style>.cls-1{fill:#fff;}</style></defs><rect class="cls-1" x="-22.35" y="46.32" width="46" height=".39" transform="translate(-45.87 47.17) rotate(-90)"/><rect class="cls-1" x="-8.48" y="23.66" width="18.16" height="1.11" transform="translate(-23.62 24.82) rotate(-90)"/><rect class="cls-1" x="14.97" y="0" width="21.68" height=".93" transform="translate(51.62 .93) rotate(180)"/><polygon class="cls-1" points="15.91 .32 1.05 15.51 0 15.22 14.86 .03 15.91 .32"/><rect class="cls-1" x="31.86" y=".35" width="217.78" height=".23"/><rect class="cls-1" x="-22.01" y="46.9" width="45.17" height=".28" transform="translate(-46.46 47.61) rotate(-90)"/><rect class="cls-1" x=".52" y="69.43" width="217.63" height=".23" transform="translate(218.66 139.09) rotate(180)"/><rect class="cls-1" x="226.49" y="23.38" width="45.91" height=".4" transform="translate(273.03 -225.86) rotate(90)"/><rect class="cls-1" x="240.33" y="45.23" width="18.16" height="1.11" transform="translate(295.2 -203.63) rotate(90)"/><rect class="cls-1" x="213.49" y="69.07" width="21.68" height=".93"/><polygon class="cls-1" points="234.09 69.68 248.95 54.49 250 54.78 235.14 69.97 234.09 69.68"/></svg>