<?xml version="1.0" encoding="UTF-8"?><svg id="Capa_1" xmlns="http://www.w3.org/2000/svg" viewBox="0 0 600 300"><rect x="76.52" y="1.32" width="522.38" height=".99"/><rect x="48.69" y=".17" width="64.18" height="3.24"/><polygon points="50.35 2.43 2.08 45.75 0 43.31 48.27 0 50.35 2.43"/><rect x="-31.11" y="74.36" width="65.72" height="3.16" transform="translate(-74.19 77.69) rotate(-90)"/><rect x="-96.99" y="198.89" width="197.16" height=".96" transform="translate(-197.78 200.96) rotate(-90)"/><rect x="1.11" y="297.69" width="522.38" height=".99" transform="translate(524.59 596.37) rotate(180)"/><rect x="487.13" y="296.6" width="64.18" height="3.24" transform="translate(1038.44 596.43) rotate(180)"/><polygon points="549.65 297.57 597.92 254.25 600 256.69 551.73 300 549.65 297.57"/><rect x="565.39" y="222.48" width="65.72" height="3.16" transform="translate(822.31 -374.19) rotate(90)"/><rect x="499.83" y="100.31" width="197.16" height=".96" transform="translate(699.2 -497.62) rotate(90)"/></svg>