<?xml version="1.0" encoding="UTF-8"?><svg id="Capa_1" xmlns="http://www.w3.org/2000/svg" viewBox="0 0 530.04 258.79"><rect x="67.59" y="1.14" width="461.47" height=".85"/><rect x="43.01" y=".14" width="56.69" height="2.79"/><rect x="-6.11" y="18.34" width="56.69" height="2.79" transform="translate(-7.49 19.55) rotate(-41.23)"/><rect x="-26.8" y="64.12" width="56.69" height="2.79" transform="translate(-63.96 67.06) rotate(-90)"/><rect x="-83.64" y="171.56" width="170.08" height=".85" transform="translate(-170.58 173.39) rotate(-90)"/><rect x=".98" y="256.8" width="461.47" height=".85" transform="translate(463.42 514.45) rotate(180)"/><rect x="430.33" y="255.86" width="56.69" height="2.79" transform="translate(917.35 514.5) rotate(180)"/><rect x="479.45" y="237.66" width="56.69" height="2.79" transform="translate(1047.27 84.19) rotate(138.77)"/><rect x="500.15" y="191.88" width="56.69" height="2.79" transform="translate(721.77 -335.21) rotate(90)"/><rect x="443.59" y="86.52" width="170.08" height=".85" transform="translate(615.58 -441.69) rotate(90)"/></svg>