<svg id="Capa_5" data-name="Capa 5" xmlns="http://www.w3.org/2000/svg" viewBox="0 0 248.44 255.27"><defs><style>.cls-1{fill:#e02310;}</style></defs><path class="cls-1" d="M137.89,266.53c-9.48-5.2-18.92-10.46-28.46-15.55-2.37-1.27-3.41-2.87-3.3-5.54q.21-5.49,0-11a4,4,0,0,0-1.41-2.8q-14.58-9.88-29.32-19.51a3.58,3.58,0,0,0-3.05,0q-11.16,5.9-22.16,12a5,5,0,0,1-5.38,0q-13.65-7.57-27.38-15a4.66,4.66,0,0,1-2.71-4.59q.08-13.63,0-27.25a4.76,4.76,0,0,1,2.74-4.6c8.27-4.65,16.46-9.44,24.73-14.09A3.07,3.07,0,0,0,44,155.53q-.09-18,0-36a3,3,0,0,0-1.87-3.08C34,112.14,26,107.66,18,103.37c-2.25-1.19-3.31-2.67-3.27-5.29.11-8.83.09-17.66,0-26.5a5.08,5.08,0,0,1,2.83-5Q31,58.95,44.38,51.14a5.5,5.5,0,0,1,6.25.06c8.62,5,17.27,10,26,14.87,2.71,1.5,3.92,3.38,3.61,6.41-.14,1.39,0,2.82,0,4.7,1-.54,1.68-.88,2.33-1.29,7.27-4.54,14.51-9.14,21.82-13.62a3.42,3.42,0,0,0,1.8-3.42c-.08-8.67,0-17.34-.08-26a5.45,5.45,0,0,1,3.12-5.41Q122.5,20,135.64,12.31a5.64,5.64,0,0,1,6.46-.06Q155.24,20,168.53,27.39a5.49,5.49,0,0,1,3.16,5.4q-.13,13.13,0,26.24a3.86,3.86,0,0,0,1.3,2.82c7.7,5,15.49,9.79,23.25,14.64.27.17.56.3,1.31.68,0-2.18.05-4,0-5.9a4.7,4.7,0,0,1,2.71-4.63q13.81-7.8,27.52-15.74a4.62,4.62,0,0,1,5.14,0q13.83,8,27.73,15.9A4.42,4.42,0,0,1,263.09,71c0,9.16-.07,18.33,0,27.49a4.83,4.83,0,0,1-3,4.7c-8.14,4.37-16.21,8.88-24.35,13.22a3.17,3.17,0,0,0-1.93,3.3q.12,17.75,0,35.49A3.62,3.62,0,0,0,236,158.9c8,4.47,15.88,9.12,23.87,13.58a5.4,5.4,0,0,1,3.21,5.34q-.18,13.25,0,26.5a5.16,5.16,0,0,1-3.1,5.14q-13.44,7.18-26.74,14.58a5.4,5.4,0,0,1-5.83,0c-7.19-4-14.46-7.91-21.65-11.92a3,3,0,0,0-3.6.06q-14.28,9.65-28.7,19.1a3.75,3.75,0,0,0-1.87,3.68c.1,3.58-.05,7.16.06,10.74a5.13,5.13,0,0,1-3.09,5.18C159,256,149.46,261.3,139.9,266.53ZM106.14,138.6c0-3.67.12-7.34-.07-11a4.33,4.33,0,0,0-1.63-2.94c-9.5-6.32-19.1-12.48-28.63-18.75a2.79,2.79,0,0,0-3.36-.16q-9.8,5.49-19.73,10.76a3,3,0,0,0-1.84,3.09q.1,18,0,36a2.91,2.91,0,0,0,1.67,3q11.1,6.23,22.1,12.66a2.77,2.77,0,0,0,3.53-.25c8.74-6.23,17.57-12.36,26.3-18.63a4.49,4.49,0,0,0,1.58-3c.19-3.57.07-7.16.07-10.74m120.74-1.07c0-6,.06-12-.07-18a3.65,3.65,0,0,0-1.41-2.71c-6.73-3.84-13.53-7.54-20.37-11.16a3.09,3.09,0,0,0-2.64.11q-14.71,9.43-29.31,19.08a3.34,3.34,0,0,0-1.36,2.34q-.15,11.25,0,22.5a3.47,3.47,0,0,0,1.27,2.41q13.52,9.66,27.17,19.14a3,3,0,0,0,2.59.12q11.32-6.32,22.53-12.9a3.73,3.73,0,0,0,1.53-2.68c.14-6.09.08-12.17.08-18.24M106.13,224.11c0-1.64.1-2.72,0-3.77-.38-3.2.86-5.21,3.78-6.79,8-4.35,15.94-9,23.84-13.61a3.47,3.47,0,0,0,1.59-2.38q.18-12.5,0-25a3.11,3.11,0,0,0-1.4-2.21q-11.22-6.29-22.57-12.31a3.27,3.27,0,0,0-2.83.15Q95.08,167.5,81.79,177a4.34,4.34,0,0,0-1.49,3c-.13,8.49-.1,17-.06,25.48a2.5,2.5,0,0,0,.83,1.82c8.13,5.49,16.3,10.91,25.06,16.73m65.52-.48c.58-.07.77,0,.9-.12,8-5.34,16.09-10.67,24.1-16.06a2.47,2.47,0,0,0,.91-1.78c.05-8.66.06-17.32-.05-26a3.76,3.76,0,0,0-1.38-2.6c-8.8-6.3-17.7-12.47-26.5-18.76a2.89,2.89,0,0,0-3.58-.19q-10.89,6.08-21.91,12a3,3,0,0,0-1.78,3.1q.12,11.76,0,23.49a3.43,3.43,0,0,0,2,3.51c8.07,4.49,16,9.21,24.08,13.69,2.35,1.31,3.43,3,3.21,5.61-.11,1.31,0,2.64,0,4.13M197.57,93.25c0-1.75-.12-3.51,0-5.24s-.56-2.82-2.09-3.77q-14-8.64-27.93-17.48a2.88,2.88,0,0,0-3.4-.12q-10,5.58-20.14,11a2.8,2.8,0,0,0-1.67,2.93q.09,11.25,0,22.48A2.87,2.87,0,0,0,144,106q11.21,6.29,22.3,12.77a2.71,2.71,0,0,0,3.34-.09c7.21-4.79,14.35-9.7,21.79-14.11,4.54-2.68,7.92-5.45,6.1-11.31M135.4,91.8c0-3.74-.06-7.49,0-11.24a2.78,2.78,0,0,0-1.65-2.94c-6.75-3.6-13.42-7.34-20.19-10.9a3.7,3.7,0,0,0-3.09,0Q96,75.6,81.73,84.74a3.89,3.89,0,0,0-1.44,2.78c-.17,3.73-.15,7.49,0,11.23a3.63,3.63,0,0,0,1.33,2.55q13.31,8.83,26.78,17.42a3.28,3.28,0,0,0,2.82.09c7.56-4.21,15-8.58,22.57-12.81a2.86,2.86,0,0,0,1.65-3c-.09-3.74,0-7.49,0-11.24M161,217.73c-7.28-4.17-14.26-8.19-21.28-12.12a2.87,2.87,0,0,0-2.22.35q-9.67,5.44-19.27,11a9,9,0,0,0-1.14.89c7,3.82,13.77,7.54,20.58,11.18a2.83,2.83,0,0,0,2.27.14c6.94-3.7,13.84-7.5,21.06-11.45M69.44,70.2c-1-.63-1.77-1.13-2.54-1.57C62.49,66.1,57.83,63.94,53.75,61c-4.46-3.25-8.1-3.17-12.59,0-4.86,3.42-10.28,6-15.77,9.2,7.28,4,14.2,7.76,21.14,11.49a2.24,2.24,0,0,0,1.81,0c7-3.73,13.87-7.52,21.1-11.46M161,123.73c-5.75-3.3-11.34-6.11-16.48-9.6-3.95-2.68-7.05-2.82-11.06-.06-5.18,3.56-10.87,6.38-16.58,9.66,7.21,3.94,14.12,7.74,21.07,11.46a2.49,2.49,0,0,0,2-.05c6.89-3.68,13.73-7.44,21-11.41M208.3,70.15c7.2,3.92,14,7.67,20.81,11.29a3.34,3.34,0,0,0,2.68-.08c4.22-2.17,8.36-4.5,12.51-6.77l8.11-4.46C245,65.91,238.06,61.9,231,57.94a1.89,1.89,0,0,0-1.57.11C222.53,62,215.62,66,208.3,70.15m-91.45-39c7.24,3.95,14.07,7.71,21,11.39a2.76,2.76,0,0,0,2.25,0c6.88-3.67,13.73-7.42,20.58-11.16-.1-.19-.13-.29-.19-.32q-10.33-6-20.69-12a2.17,2.17,0,0,0-1.78,0C131,23,124.13,27,116.85,31.19M252.44,176.3c-7.22-4.12-14-8-20.8-11.81a3.59,3.59,0,0,0-2.88.16c-4,2.12-7.82,4.4-11.71,6.64l-8.74,5c7.21,3.93,14.06,7.68,20.94,11.37a2.5,2.5,0,0,0,2.05.11c6.95-3.71,13.85-7.52,21.14-11.5m-182.92,0c-7.18-4.11-13.93-8-20.76-11.8a3.54,3.54,0,0,0-2.88.13C40.2,167.76,34.59,171,29,174.24c-1.1.63-2.18,1.29-3.54,2.1,7.21,3.93,14,7.68,20.92,11.36a2.56,2.56,0,0,0,2.06.1c7-3.72,13.86-7.53,21.11-11.5m3.7-99.6c-.47-.06-.67-.14-.78-.08C65.58,80.33,58.7,84,51.89,87.83a2.74,2.74,0,0,0-.93,2c-.1,2.9,0,5.82,0,8.72v11c5.47-3,10.3-6.16,15.55-8.33,5.44-2.28,7.68-5.5,6.87-11.46-.59-4.3-.12-8.73-.12-13.06m131.36-.58c0,7.12-.06,13.59.08,20,0,.73.92,1.68,1.65,2.09,4.26,2.44,8.58,4.75,12.88,7.1l7.68,4.14c0-4.93-.44-9.45.12-13.85.7-5.58-1.16-8.77-6.4-11s-10.35-5.49-16-8.56m22.29,139.56c0-7,0-13.65-.07-20.28,0-.64-.94-1.47-1.63-1.86-6.18-3.44-12.39-6.8-18.61-10.18-.53-.29-1.12-.49-2-.86,0,4.63.49,9-.11,13.24-.86,6.07,1.46,9.35,7,11.68,5.23,2.2,10.07,5.34,15.45,8.26m-175.94,0c5.34-2.91,10-6,15.16-8.1,5.87-2.38,8.13-6,7.25-12.26-.58-4.12-.11-8.4-.11-13.06-7.44,4.07-14.43,7.87-21.38,11.73a2.13,2.13,0,0,0-.89,1.56c-.06,6.55,0,13.11,0,20.13M21.86,76.25c-.05,1.19-.13,2-.13,2.79,0,5.32.08,10.64-.05,16a3.45,3.45,0,0,0,2.23,3.63c3.78,1.91,7.45,4,11.17,6.06,2.82,1.54,5.65,3.06,8.84,4.79,0-7,0-13.66-.07-20.28,0-.59-.79-1.37-1.41-1.72-3.75-2.14-7.55-4.19-11.35-6.25-3-1.62-5.94-3.21-9.23-5m113.53-5.69c0-7,0-13.66-.07-20.29,0-.59-.78-1.37-1.4-1.73-3.61-2-7.28-4-10.94-6-3.11-1.71-6.24-3.41-9.68-5.28-.06,1.2-.14,2-.14,2.79,0,4.41.27,8.85-.09,13.24-.33,3.84.89,6,4.45,7.66,6,2.82,11.69,6.25,17.87,9.61M233.88,109c.28.09.38.15.44.13,6.94-3.73,13.9-7.45,20.82-11.22a1.87,1.87,0,0,0,.87-1.34c.06-6.63.05-13.25.05-19.85-.42,0-.62-.14-.74-.08Q245,82.21,234.75,87.84a1.84,1.84,0,0,0-.83,1.31c0,6.64,0,13.27,0,19.84m-69.25,20.72c-7.45,4.09-14.44,7.87-21.37,11.77a2.74,2.74,0,0,0-.82,2.05c-.07,4.74,0,9.47,0,14.22v5.39c7.31-4,14.15-7.71,21-11.52a2.63,2.63,0,0,0,1.22-1.87c.09-6.48,0-12.95,0-20m-120.72,86c0-7.08,0-13.72-.06-20.36,0-.59-.82-1.36-1.45-1.73-2.81-1.62-5.68-3.12-8.53-4.68l-12.13-6.61c0,7.1,0,13.74.05,20.38a2.2,2.2,0,0,0,1.08,1.45c6.84,3.79,13.71,7.52,21,11.55m69.27,8.06c0,7.11-.05,13.74.06,20.38,0,.58.88,1.33,1.53,1.7,2.89,1.66,5.84,3.2,8.76,4.79l11.86,6.49c0-7.08,0-13.71-.07-20.35,0-.59-.82-1.35-1.45-1.7-3.9-2.22-7.86-4.35-11.81-6.5-2.82-1.55-5.64-3.06-8.88-4.81M164.63,37.19c-7.48,4.1-14.43,7.84-21.29,11.72a3,3,0,0,0-.9,2.27c-.09,4.42,0,8.83,0,13.24v6.17c7.32-4,14.19-7.72,21-11.51a2.42,2.42,0,0,0,1.17-1.67c.08-6.57,0-13.14,0-20.22m-51.46,92.5c0,7.16,0,13.73.07,20.3,0,.64.93,1.49,1.64,1.88,5.74,3.21,11.52,6.34,17.29,9.48l3.23,1.7c0-6.93,0-13.42-.05-19.92a2.35,2.35,0,0,0-.94-1.76c-6.88-3.84-13.8-7.61-21.24-11.68m142.89,53.08c-.41,0-.6-.06-.72,0-6.8,3.68-13.61,7.36-20.38,11.1a2.14,2.14,0,0,0-1,1.46c-.07,6.64-.05,13.27-.05,20.34,7.33-4,14.32-7.79,21.27-11.65a1.9,1.9,0,0,0,.87-1.34c.05-6.64,0-13.27,0-19.92M142.4,257.13c7.31-4,14.17-7.69,21-11.51a3.26,3.26,0,0,0,1.23-2.37c.13-3.82,0-7.65,0-11.47v-8.06c-7.46,4.09-14.45,7.88-21.39,11.75a2.08,2.08,0,0,0-.81,1.57c-.06,6.55,0,13.1,0,20.09" transform="translate(-14.68 -11.26)"/></svg>