<svg id="Capa_1" data-name="Capa 1" xmlns="http://www.w3.org/2000/svg" xmlns:xlink="http://www.w3.org/1999/xlink" viewBox="0 0 166.36 157.8"><defs><style>.cls-1{fill:none;}.cls-2,.cls-5{fill:#fff;}.cls-3{clip-path:url(#clip-path);}.cls-4{clip-path:url(#clip-path-2);}.cls-5{font-size:17.87px;font-family:OpenSans-ExtraBold, Open Sans;font-weight:800;letter-spacing:-0.02em;}</style><clipPath id="clip-path"><path class="cls-1" d="M58.17,129.7,56,143.24l-66.8-39.44,9.33-57L33.85,26.64l9.71,12.6,3,44.05s14,37,45.57,12.61l31.59-24.36-5-28.15,14-13.68,21.11,4.86L166.36,67.4l-30.92,62.3L98.28,145.63l-2.42-20.25Z"/></clipPath><clipPath id="clip-path-2"><path class="cls-1" d="M20.2,31,33,41l2.7,55.36,54.07,5.51,32.08-19.84,0-31.24,18.14-19,33.38,14.34L155.09,126.9S124,156.12,120.76,156.62s-76.14-2.76-76.14-2.76l-35-13.14L-6.25,86.11,5.39,39.9Z"/></clipPath></defs><path class="cls-2" d="M60.19,101A18,18,0,0,0,58,102.93c-1,.94-.84,1.72.36,2.48,0-.53-.55-1-.1-1.56a4.32,4.32,0,0,1,1.26-1c.71-.38,1.06.15,1.41.63.15-.14,0-.36.22-.48l.35,1c.44-1.22.14-2.38.37-3.48a7.33,7.33,0,0,0-.34.69c-.11.19-.13.61-.44.48s-.09-.46-.05-.71c0-.07.1-.13.13-.21A5.64,5.64,0,0,0,61.73,99a8,8,0,0,1,1.13-2.28A5.58,5.58,0,0,0,64.12,94a16.94,16.94,0,0,1,.67-3l.94-.43a1.18,1.18,0,0,0-1.16.29c-.1,0-.19.09-.29.12-.67.24-1,1.11-1.89,1-.06,0-.2.22-.22.35-.17.85-1.12,1.48-.63,2.51a3.37,3.37,0,0,1-.07-3.06.83.83,0,0,0-.4-1.16A7.42,7.42,0,0,1,59.35,89a11.14,11.14,0,0,0-1.88-1.39c-.16-.14-.31,0-.47,0a4.56,4.56,0,0,1-2.43-.07c-.18-.05-.4-.06-.42-.3s.25-.21.41-.26.38-.11.69-.2l-1.84-1c-.19-.11-.45-.21-.37-.44s.32-.2.54-.21a5,5,0,0,1,2.73,1c.15.09.19.38.49.2a.68.68,0,0,0,.42-.7,2.2,2.2,0,0,1,.14-1.29,2.85,2.85,0,0,1,.87,2.13,1,1,0,0,0,.27.85,8.74,8.74,0,0,1,.78,1c.33-.25.43-.61.68-.87.46-.49.22-.83-.12-1.27a12.52,12.52,0,0,1-1.52-2.34.72.72,0,0,1,.82.38c.38.63.92,1.14,1.25,1.81a.32.32,0,0,0,.37.17c.22,0,.14-.25.12-.36a1.53,1.53,0,0,0-.49-1c-.29-.19-.23-.38-.13-.67a3.23,3.23,0,0,1,1,3l-.48.86c-.36-.19-.45.11-.51.33s-.25.67.26.8a3,3,0,0,0,3.6,1.11,3.25,3.25,0,0,1,.54-.12l1.48.17a2.72,2.72,0,0,0-1.37-.37h0c-.08-.28-.66-.09-.52-.57h0a15.6,15.6,0,0,1,2.45.38c.56.18,1.16.15,1.73.37.35.14.64.45,1.06.42h0c.18.51.71.59,1.08.83a7.62,7.62,0,0,0,3.51,1.42c.49.06,1.07.1,1.4-.47h0c.17.08.29,0,.4-.13h0l.16-.15a1.08,1.08,0,0,0,.34-1c0-.63-.07-1.26-.12-1.89a.5.5,0,0,1,.48-.59c.06.36.11.69.18,1,.26,1.2.62,2.32,1.91,2.84a4.38,4.38,0,0,0,2.65.28,8.48,8.48,0,0,1,1.06-.31,7.44,7.44,0,0,0,2.42-.9c-.21-.39-.8-.6-.32-1.13.08-.08,0-.32,0-.48-.1-.33-.22-.64-.32-1a3.87,3.87,0,0,1,1.37-3.92l0,0c-.37.46,0,1-.16,1.45A1.66,1.66,0,0,0,85.86,88c.14.2.23.53.52.49s.29-.41.37-.66.11-.31.15-.48.19-.4.49-.38.43.12.46.41a2.18,2.18,0,0,0,.43,1c.08.13.08.4.3.33s.17-.32.15-.5a3.39,3.39,0,0,0-.13-.55l-.62-2c.35.12.31.51.6.54a1.06,1.06,0,0,0,.67.87c-.14-.44-.47-.61-.63-.9s-.39-.53-.4-.88l0,0c.71.45,1.06,1.23,1.64,1.79.79.76,1,.81,1.84.13.13-.1.16-.24.24-.36l1.2-1.82c.08-.31.48-.48.4-.86h0c.13.06.18,0,.23-.13a14.5,14.5,0,0,0,2.06-4,4.79,4.79,0,0,0,.22-2.54c-.23-2.39-.62-4.78.43-7.09,0-.12.07-.24.11-.36a.43.43,0,0,0-.48-.57c-.4.15-.86,0-1.27.37.06-.78-.36-.94-1-.86-.34,0-.67,0-1,.08a15.93,15.93,0,0,1-4.36.14c-1.39-.12-2.79-.25-4.18-.34a46.35,46.35,0,0,0-6.45.28,18.45,18.45,0,0,0-1.94.19,6.17,6.17,0,0,1-2,0c.09-.3.35-.08.38-.33-.57,0-1.2-.16-1.66.38A1.84,1.84,0,0,0,72.32,71c-.33-.11-.35-.33-.37-.57A4.62,4.62,0,0,1,72.2,69c.35-.64-.31-1.22-.18-1.86.2,0,.2.14.24.22.45.91.58,1,1.57.81s2-.21,3.07-.31c.13,0,.28.08.37-.09,1.72-.13,3.43-.33,5.15-.37,2.21-.05,4.41.18,6.62.32a31.64,31.64,0,0,0,6.38-.09,4.35,4.35,0,0,0,2.36-1c.57-.5.77-1.3,1.45-1.69,0,0,.07-.17,0-.23-.21-.37,0-.69.1-1A12.62,12.62,0,0,0,99.79,61a13,13,0,0,0-.63-5,3.45,3.45,0,0,0-2.28-2.54,22,22,0,0,0-3.23-.67c-1.87-.26-3.74-.43-5.61-.65a37.63,37.63,0,0,0-6.62-.34c-2.4.14-4.8.08-7.19.33-1.48.15-3,.28-4.43.5-1.25.19-2.49.53-3.75.64a18.29,18.29,0,0,0-7.42,2.62,3.47,3.47,0,0,0-.29.25c-1,.82-1,2-1,3.09A14.64,14.64,0,0,0,58,63.38a6,6,0,0,0,1.79,3.07,9.36,9.36,0,0,0,3.62,1.91,6.44,6.44,0,0,0,1.66.26c.53,0,.91.36,1.57.24a14,14,0,0,1,3.06-.19c.33,0,.76.12.74-.46a2.14,2.14,0,0,0,.75-.25c.36-.32.32,0,.41.18.29.93-.22,2.09-1.48,1.83a2.74,2.74,0,0,0-.62.07,22.31,22.31,0,0,1-2.7.14c-1-.07-2-.06-3-.1.13.17.25.26.27.36a29.64,29.64,0,0,0,.94,3,3,3,0,0,0,2.42,2.3c1.54.71,3.11,1.13,4.78.28a5.67,5.67,0,0,1-2,.94c-.66-.12-1.35.1-2-.25a2.06,2.06,0,0,0,.64,1,3.71,3.71,0,0,0,4.41,1.91c.81-.19,1.59-.47,2.39-.71a76.47,76.47,0,0,1,8.3-2.12,25.72,25.72,0,0,0,3.9-.61,1.13,1.13,0,0,0,.85-.35,2.26,2.26,0,0,1,2.16-.43c0,.09-.06.11-.07.11a.67.67,0,0,1-.24,0,2.1,2.1,0,0,0-1.86.71,2.55,2.55,0,0,1-1.67.82c-1.07.14-2.14.26-3.21.45a48.16,48.16,0,0,0-6.9,1.67,20.09,20.09,0,0,1-4,1,4.53,4.53,0,0,1-4.19-2,9.13,9.13,0,0,0-2-2.18c-.6-.4-1.15-.85-1.73-1.27h0a25.13,25.13,0,0,0-2.21-4.2,2.71,2.71,0,0,0-1.4-1,11.71,11.71,0,0,1-4.69-2.65,5.22,5.22,0,0,0-1.26-1c-.44-.25-1,0-1.41-.52.25.42.25.42-.06,2.05-.28,0-.37-.36-.74-.45.27,1.16,0,2.3.78,3.35.89,1.21.92,2.82,1.56,4.17a.23.23,0,0,1-.12.34,10.62,10.62,0,0,1-1.13-1.74,3.21,3.21,0,0,0,.36,1.22A25.62,25.62,0,0,0,55.92,78a15,15,0,0,1,1.53,2.67A9,9,0,0,0,58.29,83a.45.45,0,0,1-.11.63,2.31,2.31,0,0,1-.71-1,14.61,14.61,0,0,0-2.18-4.76,8.7,8.7,0,0,1-.63-2c-.4-1.11-.8-2.23-1.22-3.33-.13-.34.06-.72-.19-1a15.25,15.25,0,0,1-1-1.3c-.7-1.08-1.66-1.94-2.4-3a5.66,5.66,0,0,0-1.23-1.49,5,5,0,0,0-2.88-.86,4.56,4.56,0,0,1,2.32.12,7.93,7.93,0,0,1,3.49,3.34,6.51,6.51,0,0,0,1.21,1.3,7.6,7.6,0,0,0-.08-2c-.13-.52.24-1.34-.63-1.59a.1.1,0,0,1,0,0,5.66,5.66,0,0,1-.79-2,.53.53,0,0,0-.49-.53A6.74,6.74,0,0,0,48,63.3a8.7,8.7,0,0,1-3,.28c-.55-.07-1.16,0-1.63-.47,2.13.32,4.1-.42,6.08-.87-.24-.48-.56-1-.8-1.58a8.28,8.28,0,0,0-1.09-2.16c-.47-.58-1.32-.62-1.74-1.34-.18-.32-.67-.54-1-.86l.13-.1c1.3.7,2.81,1,3.77,2.3l.26.27a7.84,7.84,0,0,0,.45,1.47c.36.67.46,1.49,1.15,1.95.16.11.42.26.41,0,0-.47.34-.83.29-1.27a10.91,10.91,0,0,0-.7-3.15c-1-2.2-2.4-4.17-3.37-6.38a8.12,8.12,0,0,1-1-3.11.3.3,0,0,0-.4-.3c-1.17.29-2.4.25-3.55.63a28.68,28.68,0,0,0-6.13,2,9.8,9.8,0,0,1,3.17-4c1.3-1.13,2.6-2.27,4.54-2.27a9,9,0,0,1-4.15-3.16l-.4-1c.42.09.7.36,1.06.29.14.19.36.18.57.23,1.23.32,2.52.25,3.84.64-.57-.94-.23-1.83-.06-2.73a4,4,0,0,0,0-2.11c.12-.37-.18-.71-.08-1.09a2,2,0,0,1,.73.35c0,.09,0,.19.13.22a15.51,15.51,0,0,1,.65,4.17c0,.54.33.67.72.63A.63.63,0,0,0,47.5,40a5.69,5.69,0,0,0-.25-.83c-.32-1-1-1.91-1.42-2.92.3-.19.39.12.48.24,1,1.32,1.92,2.68,1.37,4.55.5-.33.91-.72,1.42-.71.75,0,.4-.31.23-.56a7.12,7.12,0,0,1-.93-1.25,14.34,14.34,0,0,1-.91-2.27,3.51,3.51,0,0,1-.23-1.15l.05,0c.26,0,.15.33.33.4a9.71,9.71,0,0,0,3.72,5.57c.7.51,1.27,1.43,2.5.84a6.36,6.36,0,0,1,1.79-.55,13,13,0,0,0-3-1.63,8.84,8.84,0,0,1-4-3.19c.14-.18.27,0,.4,0s0,.18.15.21a8.88,8.88,0,0,0,1.68,1.11,15.8,15.8,0,0,1,2.52,1.21,3,3,0,0,0,1.8.47,1.47,1.47,0,0,0-1.31-1,3.55,3.55,0,0,1-1.43-.39L49.3,36.69c0-.14-.12-.17-.24-.19-.07-.21-.38-.28-.33-.57.27-.12.45.07.64.17a19,19,0,0,0,3.82,1.59c.65.19.64.2,1.26-.18a9.94,9.94,0,0,1-4.52-4.45c.1-.29-.24-.54-.07-.84.23-.09.29.19.47.22h0c.28,1.26,1.66,2.79,2.24,2.49-.23-.17-.55-.2-.7-.49l.15-.11a11.29,11.29,0,0,0,3,.79,3.29,3.29,0,0,0-2-1.26c-.55-.22-1.17-.3-1.54-.83A.57.57,0,0,1,52,33a14.25,14.25,0,0,0,3.06.94,4.28,4.28,0,0,1,1,2.1,12.56,12.56,0,0,0,2,5.79c1,1.46,1.7,1.8,3.19,1.39a4.83,4.83,0,0,1-2.94-2c.65.17,1,.73,1.69.46-.72-1-2-1.42-2.47-2.69a18.07,18.07,0,0,1-1.21-3.4c.13.42.49.64.77.92,1,1,1.58,2.33,2.67,3.25.15.13.26.25.47.22a.77.77,0,0,1,.68.4c.44.57.87,1.15,1.31,1.74.12-.22-.27-.81.43-.59,0,.41.06.79.62.75.09.17-.07.4.15.53a1.17,1.17,0,0,0,0,.32,7.08,7.08,0,0,1,0,2.79,12,12,0,0,0-.14,2.39c0,.12-.07.31.08.33.66.09.51.62.54,1,.06.73,0,1.47.07,2.2,0,.5.41.91.81.84,1.24-.21,2.49-.39,3.71-.68,2.13-.49,4.31-.69,6.4-1.36.85-.28,1.19-.68,1-1.57s-.34-1.7-.52-2.54a21.43,21.43,0,0,1-.28-4.53A1,1,0,0,0,75,41.4c-.73-.95-1.45-1.91-2.16-2.87a.28.28,0,0,0-.3-.14,6.78,6.78,0,0,0-2.87,1.47,2.16,2.16,0,0,0-.5,2.37,4.38,4.38,0,0,1,0,.51c-.22,1.13-.52,1.28-1.55.75a6.44,6.44,0,0,1-1.25-1c-.69-.63-1-.6-1.37.24a7.86,7.86,0,0,0-1.07,2.08c-.39-.74.12-1.3.16-1.91a1.73,1.73,0,0,0-.16-1.56A5.65,5.65,0,0,0,62.56,40,42.26,42.26,0,0,1,58,36.14a15.63,15.63,0,0,1-2.53-2.8c.25,0,.38.14.53.29a1.85,1.85,0,0,0,1.17.56,8.65,8.65,0,0,1,2,.34A6.78,6.78,0,0,1,57,29.93c.36-.09.25.27.43.32a3,3,0,0,0,0,.44,8.9,8.9,0,0,0,4.75,5.24,2.11,2.11,0,0,0,1.89.18,12.44,12.44,0,0,1-5.13-4,55.06,55.06,0,0,0,5.6,2.3.54.54,0,0,0,.58-.09c.5,0,.35-.57.65-.74h0l.15-.09c-.12-.36-.48-.29-.73-.37a55.49,55.49,0,0,1-5.79-1.54c-.56-.24-1.14-.42-1.35-1.08a2.53,2.53,0,0,1,.87.35,9.5,9.5,0,0,0,2.35.87c.6.13.79,0,.64-.64a1.55,1.55,0,0,1,0-.61c.16-1.09.51-2.15.59-3.25.22-.7,0-1.47.36-2.16a9.43,9.43,0,0,1,0,3.43c.27-.38.17-.76.39-1,.29-.58,0-1.21.14-1.8l.63.56a.5.5,0,0,1,0,.77l-.53-.64c.13.59.2,1,.3,1.43s.26.88.35,1.32c0,.21,0,.53.22.54s.34-.28.37-.55a4.21,4.21,0,0,0-.31-1.52c.14-.26.27-.51.47,0a3,3,0,0,1,.38,1.57c0,.27,0,.5.39.34.65-.32,1.38-.08,2-.31.13,0,.34.08.38-.1s-.05-.29-.18-.43a3.62,3.62,0,0,1-.9-2.65l.66.38c.19.11.25.42.16.47-.68.39,0,.55.12.8.12.64.77.91,1,1.55.32-.75.8,0,1.22-.23A11,11,0,0,1,68,27.61c0-.23-.25-.5.13-.66l.13.15c.49,1.16,2,.63,2.62,1.5a.15.15,0,0,0,.11,0c.29-.49.71.12,1.12-.21L68.24,27.1c.15-.09,0-.16,0-.24.13-.3.36-.32.55-.13a2.82,2.82,0,0,0,1,.47c1,.44,2.14.44,3.25,1a8.52,8.52,0,0,1-.58-3c-.06-1.17.13-2.34.16-3.63a8.46,8.46,0,0,1,1,1.59c-.14.15-.52,0-.46.4l0,.5a3,3,0,0,0,0,1.87c.2,2.1.54,4.15,2.2,5.69a15,15,0,0,0-.87-2.55,8.72,8.72,0,0,1-1-4l.16-.28c.55,2.34,2.23,4,3.53,5.92a2.42,2.42,0,0,0-.4-2.06c-.79-1.3-1.76-2.49-2.46-3.85a2.81,2.81,0,0,1-.38-.94c.48,0,.46.52.79.64.26-.09.1-.38.25-.56l.59.52c.76,1.06,2,1.56,3.08,2.42l-.82-2.46c-.09-.74-.14-1.49-.29-2.22a5.33,5.33,0,0,1,0-.9,32.62,32.62,0,0,0,2.76,3.11c.12.14.23.29.36.43.5.51.9.44,1.18-.18a2.4,2.4,0,0,0,.11-.23,9.42,9.42,0,0,0,1.94-3.34,6.75,6.75,0,0,1,.76,3.59,2.58,2.58,0,0,1,0,.56c-.2.61-.06,1.36-.8,1.71a4.16,4.16,0,0,1,.13-.92,8.15,8.15,0,0,0,.24-3.15c-.5.14-.29,1-1,.85,0,0,0,0,0,0,.57.37,0,.7-.07,1a1.55,1.55,0,0,0,.3,1.88l.25.28c.07.21.15.37.44.35a.35.35,0,0,1,.41.42c0,.15,0,.26.15.26s.31,0,.33-.22c.05-.42.17-.3.34-.06s.1.33.3.26a.5.5,0,0,0,.31-.44,9.41,9.41,0,0,1,.62-2.44A13.31,13.31,0,0,1,87.25,23a7.39,7.39,0,0,0,.84,2.34c.09.23.17.47.27.7.42,1,.83,1.93,1.29,2.87.09.18.13.54.57.41A10.21,10.21,0,0,0,94.84,27c.24-.2.47-.41.72-.6s.25-.26.37-.11a.32.32,0,0,1-.08.48,13,13,0,0,1-4.19,2.66c-.22.12-.52.07-.69.34a.72.72,0,0,0,1.11,0l2.19-1.1c.19.22,0,.38,0,.54s.22-.15.36,0a10.78,10.78,0,0,1-1.84,1.61A4.74,4.74,0,0,0,96.12,28c.24.17,0,.42.14.68a2.24,2.24,0,0,0,.87-.77,10.39,10.39,0,0,0,1.65-2.39c.42.55.36.67-.14,1.1a4.53,4.53,0,0,0-.79,1,13.7,13.7,0,0,1-2.16,2.52,12.05,12.05,0,0,1-1.14.85,3,3,0,0,0-.71.76l-.21.11.07.14c.38-.14.89.12,1.14-.39.54-.42,1.09-.84,1.61-1.28a7.57,7.57,0,0,0,1.78-2.08,4.09,4.09,0,0,1-1.1,2.62c-.49.54-1,1-1.56,1.55a1.67,1.67,0,0,0-.38.42,1,1,0,0,0,0,.91c.13.18.41-.09.61-.18A5.49,5.49,0,0,0,99,29a4.29,4.29,0,0,0,.17-1.43c.13.43,0,.89.21,1.29a6.33,6.33,0,0,1-2.3,4.58A41.92,41.92,0,0,0,104,31.05l1.77-.77c.2-.09.47-.29.59,0s-.25.21-.4.28c-1.2.57-2.41,1.13-3.62,1.68q-.68.31-1.38.57a9.65,9.65,0,0,1-2.81,1.07c.31.26.48,0,.72.15-.59.43-1.35.67-1.58,1.47,2.84-.53,4.81-2.77,7.52-3.82-.23.5-.61.63-.89.85a8.33,8.33,0,0,0-1.2,1,7.88,7.88,0,0,1-3.24,2.19c-.37.15-.65.48-1.06.53l-1.06.49.08.16c.32-.28.78-.22,1.07-.56a6.63,6.63,0,0,1,3.27-.23c-1.33.77-2.83.4-4.16,1,1.49-.07,2.95.15,4.36-.37a9.85,9.85,0,0,0,1.15-.63c.14-.06.23-.28.42-.07,0,0,.11,0,.17,0,0-.85.83-1,1.2-1.58A8.68,8.68,0,0,0,106.05,32c.09-.31.12-.72.57-.86.14.55-.17,1-.19,1.53a.81.81,0,0,0-.12.14,8.24,8.24,0,0,1-2.7,3.53c-.6.46-1.31.7-2.06,1.2,1,.13,1.87.26,2.74.34a7.32,7.32,0,0,0,1.81,0c1.3-.2,2.58-.5,3.88-.76.11,0,.27-.07.32.09s-.09.22-.19.29c-1.1,0-2.13.45-3.25.55a15.18,15.18,0,0,1-2.71.24c-2-.18-4-.68-6-.24.19.11.43,0,.61.13-.48.32-1.12.21-1.63.6,1.66.59,3.28-.31,4.93,0-.36.38-.88.08-1.22.43a4.32,4.32,0,0,0,1.35-.07,9,9,0,0,1,1.27,0h1.25a13,13,0,0,1-2.61.73,3.91,3.91,0,0,0,2.37,0,20.38,20.38,0,0,0,4.21-1.33,1,1,0,0,1,.67-.1,2.87,2.87,0,0,1-.87.79,15.54,15.54,0,0,1-3,1c-.9.24-1.85.21-2.85.38C106,42,107.8,45.06,108,46.31c-1.6-2.94-3.7-5.23-7.24-5.63a.23.23,0,0,0-.27-.08s0,.08,0,.08.18.15.25,0c.1.26.11.33.49.44a6.16,6.16,0,0,1,2.47,1.67c.19.19.68.34.49.82,0,.15.1.13.19.17,1.13.51,1.66,1.69,2.67,2.36a1.79,1.79,0,0,1-.86-.35c-.85-.55-1.69-1.1-2.49-1.71-.14-.1-.43-.31-.49,0s0,.75.25.85c.89.35,1.74.8,2.6,1.2s1.56.69,2.33,1.05c.19.09.4.26.32.49s-.34,0-.45,0a18.21,18.21,0,0,0-2.46-1,12.82,12.82,0,0,1-4.54-1.78c-.34-.25-.43-.06-.43.28a4,4,0,0,1-.61,2.25,30.59,30.59,0,0,0-2,3.36A4.33,4.33,0,0,0,97.78,53c0,.46.55.57.81.89a8.16,8.16,0,0,1,1.24,2.55c0,.1,0,.37.31.33s.23-.21.3-.37a4.74,4.74,0,0,0,.13-1.5,2.57,2.57,0,0,1,.81-2.09l.09.11c-.78,1-.65,2.23-.68,3.35,1.15-.06,1.52-1.37,2.69-1.56.85-.13,1.65-.66,2.53-.82.29,0,.66-.44.87,0s-.2.59-.42.84a1,1,0,0,1-.4.28,3.93,3.93,0,0,1-2.56.48.68.68,0,0,0-.84.37,2.53,2.53,0,0,1-1.13,1,2.66,2.66,0,0,0-1.23,1.5,4.42,4.42,0,0,0,0,1.54,18,18,0,0,1-.56,4.38,4.26,4.26,0,0,1-1.39,2.51,1.33,1.33,0,0,0-.54,1.52,6.36,6.36,0,0,1,.08.75,7.67,7.67,0,0,1-.44,2.29,2.78,2.78,0,0,1,1.34-1.13c.3-.09.33-.49.34-.77,0-.6.29-1.14.33-1.89a3.68,3.68,0,0,1,.4,2.68c-.06.47.07.74.43.82a5.11,5.11,0,0,1,2.4,1.26.62.62,0,0,0,.34.15,3.92,3.92,0,0,1,1.4.5.65.65,0,0,0,.74,0,4.16,4.16,0,0,1,2.39-.57c.21,0,.43.05.49.29s-.19.24-.31.33-.44.07-.55.33l2.12.59c.16,0,.27.11.28.29s-.14.28-.32.33a4.83,4.83,0,0,1-3.11-.34c-.14,0-.38-.32-.48-.08s-.44.36-.2.73a3.56,3.56,0,0,1,.28,1,.35.35,0,0,1-.11.4c-.18.12-.26,0-.37-.12a2.55,2.55,0,0,1-.52-.7c-.45-.88-.72-1.88-1.68-2.41-.29-.16-.44-.29-.49.16a5.54,5.54,0,0,1-.82,1.94c-.06.11-.14.3-.33.22s-.15-.2-.14-.33a4.41,4.41,0,0,1,.76-2.58,2.55,2.55,0,0,0-2-.59,1,1,0,0,1-.78-.14c-.46-.39-.86-.15-1.24.11s-.5.46-.79.63S97,72.72,97,73a12.44,12.44,0,0,1,0,3.5,2.12,2.12,0,0,0,.29,2.19l-.77.69a6.64,6.64,0,0,1-1,2.77A47.92,47.92,0,0,1,92,87.36c-.82,1-1.47,1-2.17.4-.18-.16-.38-.32-.64-.53.12.61.06,1.31.38,1.61s.23.59.13.86A3.08,3.08,0,0,1,89.08,91c-.7.58-.35.63.24.67a.91.91,0,0,1,.05.2c-.53,0-1.05,0-1.56,0a1.06,1.06,0,0,0-1,1.27c-.09.41-.53.68-.48,1.16h0c-.16,0-.22.06-.29.18a7,7,0,0,0-.63,4.09,17.32,17.32,0,0,0,.79,2.84c.05.13.07.32.31.32-.18-.86-.37-1.69-.53-2.52a1.32,1.32,0,0,1,.31-1.35l.18,1.42c2-1,4.36-1.34,6-3l1.3.06,0,.08-.41.36c-.56.49-.58.63,0,1.19a4.06,4.06,0,0,1,.38.63c.38.66-.15,1.62.69,2.12-.07.63.77.69.81,1.29,0,.16.27-.06.31-.17a7.85,7.85,0,0,0,.57-1.25c0-.14.18-.49.3-.37.37.38.42-.19.66-.17.1.4-.17.71-.22,1.07s0,.52.38.44c.84-.17.87-.14.67.69.18.11.47-.29.57.06a.65.65,0,0,1-.16.76c-.07,0-.12.12-.19.17-.4.27-.79.54-1.2.8-.14.09-.32.13-.33.34a2.83,2.83,0,0,0,.44,2.1,3.32,3.32,0,0,0,2.26,1.45c.34,0,.66.29,1,0a.43.43,0,0,1,.42,0,28.9,28.9,0,0,1,2.71,2.2c.21.23.25.22.45.06s.24-.45.49-.18.1.41,0,.63-.47.57-.1.92a7,7,0,0,1-1.61,1c-.19.09-.33.34-.56.26-.7-.24-1.07.1-1.31.74l-.29-.38a7.94,7.94,0,0,0-.87,2c0,.13-.07.24.05.34s.23,0,.34,0a5.4,5.4,0,0,0,1.63-1.19,9.23,9.23,0,0,1,3.12-2.4c.65-.09,1-.64,1.36-1,.16-.16.56-.6.29-1a12.18,12.18,0,0,1-1-2.44l.06-.42c.25,0,.18.37.46.29,0-.84-.54-1.57-.44-2.43.09.9.78,1.49,1.05,2.29.22-.16.1-.51.41-.64.06.9-.29,1.77,0,2.65a9.07,9.07,0,0,1,.16,1.56c.16,1,1.12,1.66,1.23,2.71,0,.12.19.33.27.32s.23.08.27.26a3.36,3.36,0,0,1-.12,2.56,4.63,4.63,0,0,0-.41,2.51,4,4,0,0,1-1.25.93c-.61-.35-1.14.16-1.72.19-.11,0-.09.23,0,.32a3,3,0,0,0,.41.28l-.23.11c-.49,0-1,0-1.46,0a5.42,5.42,0,0,1-2.38-.51c-1.07-.65-1.22-1.79-.3-2.46a1.2,1.2,0,0,0,.65.73,2.9,2.9,0,0,0,2,.09,2.25,2.25,0,0,0,1.84-1.76,1.18,1.18,0,0,0-.06-.86,11.78,11.78,0,0,0-1.52-2.24c-.11-.15-.26-.32-.47-.11a6.76,6.76,0,0,0-1.35,1.59.85.85,0,0,0,.23,0c.12,0,.22-.27.37-.09s0,.27-.12.38l-.27.27a20.1,20.1,0,0,1-4.31,2.87.71.71,0,0,0-.45.9c.08.31.06.63.12.93.15.68,0,1.57,1,1.7-.16.21-.43,0-.55.23a3,3,0,0,0,2-.12,15.66,15.66,0,0,1,3.37-.76,50.83,50.83,0,0,1-6,2.67c0-.16.25-.37,0-.47a.59.59,0,0,0-.76.21,26.2,26.2,0,0,0-2.38,1.55,5.42,5.42,0,0,1-1.64.59l-5.3,1.55a41,41,0,0,1-6.27,0,.68.68,0,0,1,.42-.39,6.1,6.1,0,0,1,2.15-.47c.42,0,.88.15,1.28-.12l.14,0a1.12,1.12,0,0,0,.73-.65,3.73,3.73,0,0,1-2,.21,2.67,2.67,0,0,1,2.32-1c-.31-.38-.61-.36-.83-.24-.64.36-.64.06-.52-.44.06-.26,0-.4-.33-.39,0-.33-.26-.48-.56-.63a13.56,13.56,0,0,0-2.38-.79c-.62-.17-1.24-.33-1.86-.52a1.37,1.37,0,0,1-.89-.7c.92,0,1.8.21,2.5-.57-.27-.25-.63-.35-.71-.77A7,7,0,0,0,79.93,118a1,1,0,0,1-.25-.6.45.45,0,0,1,.37.28c.12.24.31.42.55.28s0-.44,0-.57c-.38-.69-.61-1.44-1-2.13a1.76,1.76,0,0,0-1.93-1.21,1.33,1.33,0,0,1-1.14-.43c-.14-.12-.26-.26-.48-.23.62,1.66.71,3.17.22,4-.24-.53,0-1.06-.07-1.56a2.1,2.1,0,0,0-.45-1.42c-.3.15-.19.48-.47.78,0-.88-.9-1.2-1-2,0,0-.09-.06-.15-.08a4.29,4.29,0,0,1-2.09-1.83c-.15-.3-.51-.61-.68-.53-.59.28-.1-.33-.31-.32l-.58.35a1.67,1.67,0,0,0-.09-2.19c-.63-.89-1.25-1.78-1.94-2.63-.29-.36-.35-.88-.85-1.22a5.89,5.89,0,0,0,1.12,2.6,3.9,3.9,0,0,1,.82,3.63,3.52,3.52,0,0,0-.48-1.9,11.28,11.28,0,0,0,0,3,4,4,0,0,0,.79,1.74,1.74,1.74,0,0,0,2.08.84c.42-.13.84-.27,1.27-.38a1.22,1.22,0,0,1,1.49.65,4,4,0,0,1,.4,1.95c0,.21,0,.39-.29.4s-.32-.12-.35-.35a9.68,9.68,0,0,0-.31-1.29.85.85,0,0,0-.78-.65c-.33,0-.74,0-.9.29a.94.94,0,0,0,.19,1l.14.21A4.45,4.45,0,0,1,74,118.41c0,.15.77.54-.08.59a.29.29,0,0,0,0,.17c.17.48.24,1,1,.9a.66.66,0,0,1,.79.57,3.77,3.77,0,0,1,.11,1.86,3.1,3.1,0,0,0-.43-1.44,5.38,5.38,0,0,1-2.78,1.32c-.39,0-.87-.1-1.16.17s-.61.4-.76.77-.33.3-.53,0l.16-.25a4,4,0,0,0-.29-3.06,3.92,3.92,0,0,0-.6-1.65c-.06-.12-.08-.36-.32-.21.1,0,.09-.1,0-.17h-.08l.05.16L70,120c0,.29-.17.62-.07.86a3.2,3.2,0,0,1,0,2.26c0,.25-.24.21-.3.37-.23.11-.49.2-.39.55l0,0c-.18-.06-.19.05-.18.18h0c-.13,0-.24,0-.18.19l0,0c-.18-.07-.16,0-.16.16l-.42.54c-.29.1-.38.38-.53.6a1.51,1.51,0,0,1-2,.49,5.4,5.4,0,0,1-1.49-1.18,2.24,2.24,0,0,1-.83-2.67c-.24.15-.23.34-.3.48-.3.56-.14,1.26-.52,1.79-.12,0-.16,0-.22-.11,0-.67.4-1.3.18-2.08-.48.64-.61,1.51-1.57,1.55a10.8,10.8,0,0,1,.36-2c0-.39.09-.75.53-.91.13,0,.28-.13.17-.33s-.07-.34-.3-.36-.34,0-.45-.18l.42-.34a8,8,0,0,1,3.85-.75c0,.09.3.21,0,.26l-1.29.23c-.1,0-.3,0-.26.09.3.35-.21.7,0,1l-.15.08,0,0,.15-.08c.13,0,.19,0,.14.18-.19.58,0,.8.6.63a2.77,2.77,0,0,1,.81-.06,2.85,2.85,0,0,0,1.87-.37.9.9,0,0,1,.91-.06c.16.07.45,0,.46.22a.62.62,0,0,1-.41.58c-.72.33-1.46.63-2.19.94a8,8,0,0,1-1.39.39,2.94,2.94,0,0,1-1.18-.16c0,.53.23.77.77.76a2.84,2.84,0,0,0,1.49-.39l1.38-.52c.45.05.75-.35,1.18-.38l0,0a.92.92,0,0,1-.61.5c-1.17.41-2.09,1.38-3.42,1.44a4.25,4.25,0,0,0,1.1,1,1.17,1.17,0,0,0,1.88-.35,7.28,7.28,0,0,1,1.17-1.47,2.17,2.17,0,0,0,.56-2.68,12.29,12.29,0,0,1-1.49-5.5,3.34,3.34,0,0,1-2.19,2.11c-.13.17-.3.13-.33,0-.11-.45.47-.3.58-.65l-1.34.55c.34.31.74-.11,1.1.12-.46.44-1.09.31-1.63.5a4,4,0,0,0-2.13.72c.87.32,1.6-.52,2.45-.21a11.23,11.23,0,0,0-2.68,1.11,5.52,5.52,0,0,1-1.89.43c-.81,0-.8.46-.82,1a4.32,4.32,0,0,0,.08.94,2.67,2.67,0,0,1-.42,2.11,3.23,3.23,0,0,1,0-.39c0-1.07-.16-1.17-1.24-.94-.08,0-.17,0-.22,0s0-.19.08-.28c.25-.4,0-.58-.34-.66a1.4,1.4,0,0,0-1,.11c-.43.25-.91.44-1.37.65l0,0c.3-.43.82-.55,1.22-.84.24-.17.38-.29.08-.55s-.45-.33-.12-.6a5,5,0,0,0,3.59-1.5,4.71,4.71,0,0,0-1.42.6c-.91.23-1.77.62-2.71.77-.17,0-.33.22-.58,0,1.5-.72,3.2-.9,4.58-1.84-1.19.37-2.49.22-3.62.85a1.92,1.92,0,0,1-.93.34,1,1,0,0,0-.91.44l-1.08,1.06a3.67,3.67,0,0,1,.58-1.07,2.42,2.42,0,0,0,.58-1.63,7.23,7.23,0,0,1,.2-1.47c.06-1,.57-2,.53-3,0-.76.15-1.49.19-2.24.06-1.16.11-2.33.2-3.5,0-.4,0-.8,0-1.2,0-.18-.11-.37-.29-.37s-.18.2-.22.34a8.79,8.79,0,0,0-.06,2.51l0,.27a8,8,0,0,0-.09,2.53,7.56,7.56,0,0,1-.64,2.92,18,18,0,0,0-1,2.78c-.23.72-.39,1.46-.57,2.2a13,13,0,0,1-.1-2c0-.77,0-1.58-.88-2.05a12.66,12.66,0,0,0-1.83-1.22.24.24,0,0,1-.15-.26c.2-.1.36.11.55.08s.38.08.5-.15-.09-.29-.24-.39,0-.18.11-.25a6.93,6.93,0,0,0,2-.11,10.54,10.54,0,0,1-3.39-.58c-.16-.23-.08-.33.17-.29a4.82,4.82,0,0,0,1.25.12c.12,0,.28,0,.31-.13s-.11-.21-.23-.26l-.35-.13c-.72-.35-1.56-.18-2.4-.63h2.69a11.43,11.43,0,0,0,2.92.93l-2.7-1.26a.75.75,0,0,0-.82-.47v0c0-.18-.06-.2-.2-.18h0c0-.3-.15-.39-.41-.39a2.22,2.22,0,0,0-.85-.53h0l-.26-.23a3,3,0,0,0-.4-.3,2.22,2.22,0,0,0-1.78-.41c-.21.06-.45.36-.64,0s.2-.43.36-.53c.77-.47,1.57-.9,2.36-1.34l-.08-.13c-1.37.7-2.9,1.17-3.83,2.57a1.28,1.28,0,0,1-1.05.75c.15-.2.24-.37.36-.51.71-.78,1.2-1.8,2.28-2.2a12.73,12.73,0,0,1,1.65-.83m5.65-11.24.73.34,3.58,7.34a7.4,7.4,0,0,0,.57-.55m-1.2-1.46-2.18-3.62M39.37,47.3c.16.09.16,0,.14-.12,0,0,.08.06.12,0s0,0,0-.06l-.12.07-.13.12-.13.12c-.32.12-.59.28-.61.67-.28-.1-.27.16-.44.29.33.06.37-.13.43-.3.31-.13.58-.29.61-.67,0,0,.08,0,.11,0S39.39,47.36,39.37,47.3ZM78.43,24.43l-.05-.3s-.12.05-.14.09c-.07.19.08.18.2.2l0,.4.19-.21a1.21,1.21,0,0,1,.17.87c-.5.44,0,.7.16,1.09.22-.3-.22-.55,0-.78a20,20,0,0,1,1.22,2.56c0,.35.39.54.41.89,0,.1,0,.23.13.19s.13-.14.07-.25l-.53-1.05c-.27-.62-.18-1.36-.66-1.92a4,4,0,0,1-.34-.62c.17,0,.28-.07.38.06A23.05,23.05,0,0,1,81.53,28a5.22,5.22,0,0,0,2,2.09c.25.45.64.41,1.06.29.28.24.31.7.76.87a3.3,3.3,0,0,0-.87-2.14c-.75-.78-1.58-1.49-2.36-2.24a35.37,35.37,0,0,1-3.59-3.74c-.17.48.13.87.08,1.28ZM40.13,46.65c-.16.08-.34.14-.36.45.2-.14.44-.15.36-.46l.11,0,0,0Zm37.4-13.59c.24,0,.44-.06.5-.33h0a.46.46,0,0,0,.29-.45A2.29,2.29,0,0,0,78.63,31c-.25.33-.46.6-.66.88s-.37.59-.55.88c-.19.11-.12.28-.11.44s.06.15.16.11.08-.13.06-.21Zm24.8,81.27c-.26.33-.77.41-.89.89-.15,0-.34,0-.4.21a.44.44,0,0,0,.42-.18c.28-.31.76-.41.92-.85.21-.05.39-.13.38-.4C102.54,114,102.45,114.19,102.33,114.33ZM46.1,46.12l0,0c-.39-.19-.47.12-.67.41a1.83,1.83,0,0,0,1-.26,7.52,7.52,0,0,1,1.57.08c.63.1,1.26.27,1.91.32A13.58,13.58,0,0,0,54,46a19.28,19.28,0,0,0,2.26-.47c.18-.07.33-.13.39-.33-.56-.06-.07-.46-.21-.66s.43-.34.17-.64a1.89,1.89,0,0,0-1.92-.42l.54.28c.26.27.28.47-.17.5-.29,0-.59,0-.88.05a2.64,2.64,0,0,0-2.45.47,11.4,11.4,0,0,1-1.29.7c-.39.2-.24-.16-.35-.25.19.15.32.05.51-.19l-.5.21a3.6,3.6,0,0,1-2.22.58,3.22,3.22,0,0,0-1.57.11C46.15,46,46,45.93,46.1,46.12ZM85.72,105.9l-.44-.14c.14.11.26.35.44.13.1.55.62.54,1,.76C86.44,106.29,86,106.15,85.72,105.9ZM47.2,43.44c0-.19-.08-.17-.2-.15-1-.22-2.06-.42-3.09-.67a13.53,13.53,0,0,1-2.39-.68c-.25-.11-.37-.5-.76-.43.05.09.06.14.09.16a6.16,6.16,0,0,0,.62.63,6.82,6.82,0,0,0,5.16,1.8,1.14,1.14,0,0,0,.73,0,.4.4,0,0,0,.27-.44c-.06-.22-.2-.3-.42-.17ZM55.66,113a7.1,7.1,0,0,0,.39-2.15L55.54,113a1,1,0,0,0-.18,1A1,1,0,0,0,55.66,113Zm33,5a2.13,2.13,0,0,0-.29-.82c-.09.19-.52.32-.06.56.2.12.1.35.17.52a1.29,1.29,0,0,0,.23,1,1.12,1.12,0,0,0,.6,1,1.17,1.17,0,0,0-.22-1C89.13,118.85,88.73,118.51,88.7,118.05ZM76.79,106.58s0-.08,0-.12c.31-.15.6-.42,1-.12.67.44,1.51.54,2.09,1.13l1.65,1.39c-.41-.57-.7-1.24-1.39-1.51a14.35,14.35,0,0,1-2-1.18c-1.33-.62-1.58-1.79-1.67-3.18.37.29.38.83,1,.76.23,0,.73.32.88.09a2.17,2.17,0,0,0,.4-1.39,5.88,5.88,0,0,0-.91-2.07c-.16-.28-.37-.25-.47,0-.19.39-.56.7-.56,1.17h0a.48.48,0,0,0-.51.39c.12.7-.41.82-.83,1-.08,0-.18.09-.15.17.17.45-.22.39-.43.56-.38.32-.89.18-1.34.51a3.72,3.72,0,0,1,2.22.52c.38.24.85.55.83,1a2.11,2.11,0,0,0,.21.82c-.07,0-.16,0-.16.08s.08,0,.13.07A4.5,4.5,0,0,0,79,107.78,10.84,10.84,0,0,0,76.79,106.58ZM106,114.23a3.67,3.67,0,0,1,1.37,1.45c.1.25.18.51.3.75a.39.39,0,0,0,.32.15c.17,0,.15-.2.11-.3-.17-.48-.23-1-.78-1.29-.26-.11-.28-.43-.49-.58a3.52,3.52,0,0,0-2.25-1Zm-12.44,4.36c-.34-.14-.35.17-.48.34a8.07,8.07,0,0,0-1.2,2.4c.31-.44.56-.92.83-1.38a9.08,9.08,0,0,1,.83-1.37l.18-.51C93.45,118.27,93.34,118.39,93.51,118.59Zm2.16-3.26-.08.13.09.05,0-.18a7.58,7.58,0,0,0-2.26-2.18,10.17,10.17,0,0,0,1.2,1.34C94.94,114.78,95.1,115.33,95.67,115.33Zm-.2-1.61a.21.21,0,0,0,.18.24c.11,0,.1.13.09.22a1.42,1.42,0,0,0,.6,1,4,4,0,0,0-.35-1.4L95.7,112l.13-1a2.84,2.84,0,0,0-.86.91c-.52.79-.37,1.36.5,1.86Zm-37-5.75a5.39,5.39,0,0,0,.32-.93c.08-.43.39-.8.31-1.27,0-.09,0-.23-.12-.23s-.2.06-.17.21c.15.73-.33,1.33-.43,2a20.83,20.83,0,0,0-.89,4.31A28.46,28.46,0,0,0,58.47,108Zm38.05,15.66a2.53,2.53,0,0,0,2-.19c-.36,0-.68-.27-1-.14h-3A4.31,4.31,0,0,0,96.52,123.63ZM83,117.82c0-.18,0-.3-.23-.26a20.47,20.47,0,0,0-1.6-1.77c.09.3.12.46.18.61a23,23,0,0,0,2.82,5.15c.16.26.34.18.53,0s.21-.11.17-.22a9,9,0,0,0-.78-2.11c-.32-.5-.4-1.24-1.1-1.47Zm17.32-6.42a1.48,1.48,0,0,0,0-1.63l-.13,1.32A17.45,17.45,0,0,0,99,114.31a6.34,6.34,0,0,0,.54-.81C100,112.86,100,112.07,100.31,111.4Zm-50.74-.62-.14-.09s0,0,0,0l.15.08c.07.41.48.44.75.61a6.6,6.6,0,0,0,2.47,1A15.4,15.4,0,0,0,49.57,110.78ZM62.69,98.09c.52-.42.84-1,1.31-1.49s.36-.74.55-1.1a.21.21,0,0,0-.09-.32c-.12,0-.2.07-.24.16-.41,1-1.16,1.75-1.56,2.72l-.09.15,0,0Zm34-63.4a5.5,5.5,0,0,0-2,1.05c-.15.16-.45.33-.21.6a.56.56,0,0,0,.82.14,6,6,0,0,0,1.41-1.8c0,.07.06.09.12.06s0-.06.05-.09ZM81.39,36h0a1,1,0,0,0-.42.93c0,.47,0,.93,0,1.4,0,1.27.82,2,1.6,2.89,0-.27.13-.46-.07-.6,0-.4,0-.8,0-1.2-.15-1.26-.3-2.52-.49-3.77a14.9,14.9,0,0,0-.52-2.56c-.1-.3-.14-.16-.21,0a2.88,2.88,0,0,0-.09,1C81.26,34.7,81.06,35.38,81.39,36Zm-40,11.39-.85.46c-.45,0-.9.08-1,.62a3.23,3.23,0,0,0-.58.31c-.12.09-.46.07-.29.4,0-.09-.07-.14-.16-.07s0,0,0,0,.12,0,.18,0a22,22,0,0,1,4.42-1.22,22.56,22.56,0,0,0,3-.66l.48-.14a2.36,2.36,0,0,0-1.52-.1,5.18,5.18,0,0,1-3,.12C41.76,47.08,41.56,47.1,41.43,47.38ZM70.68,99.21c-.1.53-.35,1.06,0,1.6a3.94,3.94,0,0,1,.55-2.06c-.38.09-.41.35-.58.47a1,1,0,0,1,1.3-.9A1.1,1.1,0,0,0,73.13,98a2.15,2.15,0,0,1-1.57-.29.77.77,0,0,0-.84.16c-.73.7-1.5,1.35-2.3,2,.29.37.81.29,1.06.7C69.8,100,70,99.42,70.68,99.21Zm-14,16.91c-.51.31,0,.42.12.6.29.34.46,0,.56-.13a7.43,7.43,0,0,0,1-2.08,2.72,2.72,0,0,1,1-1.66,3.74,3.74,0,0,0,1.47-3.44c.14-.56-.09-1.17.19-1.79a2.54,2.54,0,0,1,.37,1.31,1.09,1.09,0,0,0,.19.43c.23-.41.44,0,.64,0s.4-.11.53-.26a2.08,2.08,0,0,0,.51-1.33,1,1,0,0,0-.46-1,13.64,13.64,0,0,1-3.67-2.27l-.09-.15s0,0,0,0a1,1,0,0,0,.08.14c.12.63.58,1.21.39,1.89a5.89,5.89,0,0,0-.12,2.17c0,.29-.17.79.17.83s.43-.49.56-.81c0-.09,0-.21,0-.31a7.84,7.84,0,0,1,.33-1.55,13.65,13.65,0,0,1,.34,2.63,4.09,4.09,0,0,1-.16,1c0,.14-.1.24-.26.18-.32-.14-.3-.14-.45.21s-.12.55-.38.73c.05-.31.42-.31.52-.57a.19.19,0,0,1,.27-.06c.09.07.06.19,0,.29a4.85,4.85,0,0,1-.93,1.18,3.87,3.87,0,0,0-1.33,2.27C57.37,114.89,57.09,115.55,56.7,116.12Zm25.67-9.65a10.47,10.47,0,0,0-1.54-1.72c.47,1.33,1.59,2.24,2.08,3.54.18-.09,0-.28.17-.32.43.3.45.84.85,1.33a5.57,5.57,0,0,0-.35-2,3.85,3.85,0,0,0-1-1.68c-.1-.1-.24-.22-.38-.1s0,.24.1.31c.26.18.11.41.1.63Zm-5.21-55.2h7.35a14.38,14.38,0,0,0-7.59-.22c-.56-.16-1,.22-1.55.28C76,51.29,76.58,51.54,77.16,51.27ZM63.7,113.71a4.42,4.42,0,0,1-1.53.29,8.63,8.63,0,0,0-2.11.25,4.71,4.71,0,0,1,1.37.47,5.27,5.27,0,0,1-1.84-.13,2.69,2.69,0,0,0,1.19.38,4.36,4.36,0,0,0,2.38-.52c.23-.1.47-.19.69-.3,1.13-.61,1.45-1.19,1.21-2.33a17.31,17.31,0,0,1-.25-2.38c-.06-.71.29-1.39.09-2.21a9.1,9.1,0,0,1-.91,1.44,2.53,2.53,0,0,0-.6,2.46c.27.93.07,1.14-.78,1.38-.08.19.35.34.06.53s-.42,0-.52.31c.43,0,.83,0,1.22-.07s.71-.28,1.16-.14C64.26,113.44,63.89,113.44,63.7,113.71Zm32.89,7.63a5.62,5.62,0,0,0-.49-3.26,2.64,2.64,0,0,0-1.45-1.37c.48,1.11,1.18,2.15.76,3.46l-.65-1.75a9.4,9.4,0,0,0-1.55,3.4c0,.17,0,.38.24.37a10,10,0,0,0,2.62-.09C96.46,122,96.72,121.8,96.59,121.34ZM65.42,38.13c.18.14.26,0,.35-.13a12.57,12.57,0,0,1,.91-1,5.53,5.53,0,0,0,2.07-4.4,1.7,1.7,0,0,0-1.13-1.89l.39-.12c-1.8-.57-3.32.33-4.94.82A35.39,35.39,0,0,0,67.2,31c.74-.08,1.25.14,1.07.91a4.19,4.19,0,0,1-.8,1.64c-.67.88-1.32,1.78-2,2.67.73-.32,1.14-1,1.92-1.53a3.18,3.18,0,0,1-.47.93,6.46,6.46,0,0,0-1.51,2.48c-.05.08-.1.17,0,.26h0C65.44,38.3,65.56,38.2,65.42,38.13ZM85,117.81l.08.15s.05,0,.05,0l-.09-.14c0-.36.44-.62.12-1a3.37,3.37,0,0,0-.65-.84c-1.12-.79-1.68-2.1-2.79-2.91a3.06,3.06,0,0,1-.83-1.47c-.1-.26-.24-.51-.52-.43s-.16.43-.13.66a6.67,6.67,0,0,0,.54,1.42,1.59,1.59,0,0,1-1.22-1.57c-.06-1.44-.34-1.92-1.33-2.15a2.1,2.1,0,0,0-1.19,0c-.42.14-.72-.28-1.12-.11,0-.23.27-.28.2-.52-.64-.09-.49.82-1.07.8a3.29,3.29,0,0,0,.53,0c.46,0,1,0,.88.79a2.5,2.5,0,0,0,.16,1.36c.42.87,1.21.88,2,.75a1.34,1.34,0,0,1,1.24.48c.61.55,1,1.25,1.71,1.75a20.65,20.65,0,0,1,2.82,2.38C84.58,117.37,84.65,117.74,85,117.81ZM82,45.67,82,45.54a5.11,5.11,0,0,0-.09-1.7.71.71,0,0,0-.93-.55c-.11,0-.16.19-.32.16a7.34,7.34,0,0,0-2.56,0c-.35.06-.52.15-.62.47a9,9,0,0,0,0,4.5c.09.54.38.72.91.66a13.28,13.28,0,0,0,2-.42c.43-.12.85-.37,1.32,0,.15.12.51.14.51-.22A13.59,13.59,0,0,0,82,45.67ZM68.77,102.26c.22,0,.33.27.58.2A6.33,6.33,0,0,0,65.8,100c-.79-.17-1.75-.28-2.13-1.26-.11-.29-.41-.07-.44,0-.19.47-.63.79-.7,1.32a24.53,24.53,0,0,0-.24,4.1.47.47,0,0,0,.22.49c.13-1.22.34-2.4.58-3.59.17.13,0,.43.26.45.21-.35-.06-.77.23-1.2a4.46,4.46,0,0,1,0,2.82c-.15.51-.29,1-.42,1.55a.56.56,0,0,0,.22.67c.26.13.32-.18.46-.31a19.73,19.73,0,0,0,2.77-3.84c.14-.2.28-.1.42,0a2.25,2.25,0,0,1,.7,1.11,5.33,5.33,0,0,0,2.42,3.08c.34.2.69.06.95.27a10,10,0,0,1,1,.92c.29.32.45.38.77.12s.29-.32,0-.72a8,8,0,0,0-2.44-2.43c-.62-.36-1.4-.57-1.73-1.34ZM91.36,36.5c.42-.15.87-.25.94-.8a1.85,1.85,0,0,0-.19-1.42c-.68-1.31-1.4-2.6-2.11-3.9a32.63,32.63,0,0,1-2.42-5.48c-.09.27-.1.52-.24.67-.38.42-.18-.21-.37-.25-.11.36-.21.69-.3,1a7.84,7.84,0,0,0-.33,3.37,20.41,20.41,0,0,0,.72,3.07,26,26,0,0,0,1.55,3.64c.08.15.13.28.32.17-.16.19-.06.31.15.49l-.16-.49a21.3,21.3,0,0,1-1.5-3.34,3.55,3.55,0,0,1-.26-2.36,1.62,1.62,0,0,0,0-.73,25,25,0,0,1-.14-4c0-.14-.06-.36.12-.37s.19.24.18.37a14,14,0,0,0,.2,2.05,30,30,0,0,0,.86,3.12,12.46,12.46,0,0,0,.84,2.79c0,.15,0,.34.18.34s.19-.19.19-.33c0-.5,0-1,0-1.51,0-.24.07-.4.33-.11a1.47,1.47,0,0,1,.35,1.32,5.72,5.72,0,0,0,.3,3.15,7.86,7.86,0,0,0,.63-2.87,1.7,1.7,0,0,1,.14,1.31,4,4,0,0,0-.16,1.11s0,.14.08.07A.78.78,0,0,0,91.36,36.5Zm-12.12-1c-.12-.28-.27-.41-.41,0a2.35,2.35,0,0,0-.1,1.29c-.21,1.89.89,3.3,1.84,4.87a3.68,3.68,0,0,1-1.84-1.26,1.94,1.94,0,0,0-.89-.88c-.42-.12-.3-.29-.26-.56a7.18,7.18,0,0,1,.74.33c.11.07.11.4.33.18s-.06-.35-.15-.43a1.16,1.16,0,0,0-.66-.31c-.3,0-.29-.27-.45-.41-.13.34-.23.63-.36.91,0,.12-.12.27-.27.22s-.07-.22,0-.35a6.36,6.36,0,0,0,.41-2.25c0-.47-.19-.58-.61-.55a1.59,1.59,0,0,0-1.47,1.78,1.47,1.47,0,0,1-.34-1.17c0-.41.46-.66.5-1.11-1.1.33-1.33.85-.86,1.83a3.38,3.38,0,0,1,.22.52.28.28,0,0,1,0,.27c-.23.19-.22.17-.1.38s.64.55.23,1c-.14.16.21.43.37.31.35-.25.47,0,.67.16a7.3,7.3,0,0,0,5.12,2.06c.82,0,1.49.57,1.37,1.23-.16,1,.18,2,.09,2.95A5.44,5.44,0,0,0,82.54,48a2.12,2.12,0,0,0,.52,1.85L83,49.08a32.46,32.46,0,0,0-.11-4.73,4.49,4.49,0,0,0-1.22-2.82,5.64,5.64,0,0,1-1.19-2.84,26.52,26.52,0,0,1-.12-2.81c-.08-.89-.51-1.38-1.23-1.33.09.43.74.69.43,1.23ZM59.4,51.15c-.18.83-.32-.08-.52,0a11.42,11.42,0,0,1-.12,1.64,1.51,1.51,0,0,1-1.16,1.42l-.13-.11a2.12,2.12,0,0,0,.59-1.59c0-.91,0-1.82,0-2.74A4.36,4.36,0,0,0,57.64,48c-.07-.15-.19-.38-.48-.22a2.25,2.25,0,0,0-.82,1.52,25.12,25.12,0,0,1,.35,4.82c0,.46.16,1-.33,1.37,2.41-.54,4.49-1.53,5.79-3.74,0-.07.06-.17.16-.16.9.12.39-.45.35-.76,0-.14-.16-.24-.15-.4.1-1.2-.29-2.4,0-3.6a3.4,3.4,0,0,0,.12-1.31c-.09-.64-.37-.9-1-.87a2.25,2.25,0,0,0-1.87,1.1,5.72,5.72,0,0,0-.7,2.06,1.88,1.88,0,0,0,0,1.28C59.2,49.79,59.6,50.42,59.4,51.15Zm27.9-15.4c-.3-.6-.32-1.23-1.17-1.65-1.16-.57-2.39-1-3.53-1.63a1.08,1.08,0,0,1,0,.64,8.14,8.14,0,0,0,.07,3.15,35.79,35.79,0,0,1,.46,4.62A1.82,1.82,0,0,0,83.4,42l.14,1.94a1.75,1.75,0,0,0,0,.32c.09,1.6.19,3.19.17,4.8,0,.67.42,1,1,1.24.88.29,1.79.5,2.63.87a8.56,8.56,0,0,0,2.32.52c1.68.26,3.37.42,5,.73.69.13,1.37.27,2.14.37-.64-.48-.53-1.05-.36-1.64a1.61,1.61,0,0,0,0-.44c0-.57.08-1.18-.6-1.47s-1.16.15-1.67.47a1.45,1.45,0,0,0-.18.17c-.34.32-.61.72-1.11.82-.09,0-.3.08-.07.23s.06.26-.1.24a2.41,2.41,0,0,1-1.71-.82,21.32,21.32,0,0,0-2.78-2.76,5.61,5.61,0,0,1-2-2.33,11.94,11.94,0,0,0-.78-1.8c-.45-.81-.91-1.61-1.32-2.44a.88.88,0,0,1-.06-.93,3.23,3.23,0,0,0,.29.53,13.56,13.56,0,0,1,2.43,4.36,2.49,2.49,0,0,0,.59,1,35,35,0,0,0,3.87,3.22c.78.5,1.17.45,1.84-.23a8.06,8.06,0,0,1,1.38-1.36,4.69,4.69,0,0,1,3.56-.16A3.43,3.43,0,0,0,97.32,49,1.82,1.82,0,0,0,95,48.55a8.47,8.47,0,0,1,1.14.11c.85.2,1,.59.81,1.45a2.69,2.69,0,0,0,0,.75c.59-.19.21.41.45.55a4.64,4.64,0,0,0,.23-.44,10.83,10.83,0,0,1,1.31-2.44,8.07,8.07,0,0,0,1.31-2.3,1.51,1.51,0,0,0-.19-1.54,1,1,0,0,1-1.39.27c-.14-.09-.2-.28-.39-.3a.72.72,0,0,1-.11-.15c-.55-1.41-1.1-2.82-1.64-4.24a2.08,2.08,0,0,0-.33-.6,33.23,33.23,0,0,0-3-2.43.56.56,0,0,0-.71,0c-.35.11-.44.42-.56.71-.27.67,0,1.38-.22,2.07a2.7,2.7,0,0,1-.78,1.46.69.69,0,0,1-.93.12,2.09,2.09,0,0,1-1-1.84c0-.36.08-.81-.4-1a2.17,2.17,0,0,0-.41-1.34A10.47,10.47,0,0,1,87.3,35.75ZM47.54,47.91c-.82.15-.83.55-.65,1.14a37.46,37.46,0,0,0,2.76,5.79,20.4,20.4,0,0,1,1.59,3.21,11.92,11.92,0,0,0,.59,1.71,12.81,12.81,0,0,0-.63-3.06c-.16-.38-.55-.73-.14-1.19,0,0-.08-.22-.11-.34-.13-.59-.59-1-.73-1.64.2.15.32.38.72.48a17.59,17.59,0,0,1-1.53-4.46c.46.15.41.59.78.78A6.36,6.36,0,0,0,49.55,49a.62.62,0,0,1,.61.35c.24.42.5.82.73,1.25s.22.46-.27.48a17.27,17.27,0,0,1,1.75,6.77,5.52,5.52,0,0,0,.39,1.65.48.48,0,0,0,.46.37c.71,0,1.46-.8,1.67-1.75.15-.76,0-.92-1-1.32a.91.91,0,0,1-.17-.09c-.17-.11-.5-.13-.45-.37s.37-.13.56-.13a2.06,2.06,0,0,0,2-2.25,31.11,31.11,0,0,0-1.4-5.61c-.36-1-.93-1.31-1.92-.85A4.68,4.68,0,0,1,50.7,48c-1.16,0-2.29-.36-3.46-.26-.37,0-.37,0-.64.28C46.88,48,47.1,47.76,47.54,47.91Zm20.69-6c0-.44,0-.85,0-1.25a2,2,0,0,1,1.26-1.78,6.23,6.23,0,0,0,3.58-4,6.46,6.46,0,0,0-.48-4.3c-.18-.42-.17-.95-.7-1.41a1.44,1.44,0,0,1-.16,1.45C71,32.06,70,33.39,69.27,34.9a2.89,2.89,0,0,1-.71,1A6.84,6.84,0,0,0,66.71,39a2.81,2.81,0,0,0,.18,2.52A9.4,9.4,0,0,1,68,37.75a15.44,15.44,0,0,1,2.78-4A2.93,2.93,0,0,0,72,31.69a1.77,1.77,0,0,1,.26-1c0,1,0,1.78,0,2.6a2.39,2.39,0,0,1-.36,1.11c-.79,1.15-1.65,2.26-2.47,3.4S67.73,40.25,68.23,41.87Zm12.56,58.72a1.57,1.57,0,0,1,.19.66c.06,1.44.4,1.84,1.79,2.28.46.15.62,0,.62-.44a3.45,3.45,0,0,0-.2-1.42,7,7,0,0,1-.57-2.83,2.84,2.84,0,0,0-.51-1.8v3.06c-.23-1.48-.87-2.94-.24-4.47a6.49,6.49,0,0,1-1.13,1.15A2.37,2.37,0,0,0,79.82,98a6.7,6.7,0,0,0-.38,3.23c.08.8.16.89,1,1.07.37.07.3.06.3-.25C80.74,101.59,80.53,101.09,80.79,100.59ZM91.9,110.71c.2-.17.38-.47.58-.49a5,5,0,0,0,1.89-.9,1.11,1.11,0,0,0,.55-1.4c-.14-.65-.27-1.3-.35-2a2.43,2.43,0,0,0-.6-1.66c-.38-.34-.82-.79-1.23-.73s-.59.65-.7,1.12a16.88,16.88,0,0,1-.38,2.74A3.46,3.46,0,0,0,91.9,110.71Zm-24.13,4a6,6,0,0,1,.32-2.2,6.31,6.31,0,0,0-.59-5.22,7,7,0,0,1-.73-1.51c-.07-.21-.32-.36-.48-.54-.09.31-.59.22-.58.66a13.42,13.42,0,0,0,.54,4.67,10.66,10.66,0,0,1,1.08,2.88A2,2,0,0,0,67.77,114.74ZM92.62,97.58a15.52,15.52,0,0,1-2.6.94,5.54,5.54,0,0,0-2.06.84c-.36.24-.8.46-1,.87s.42.46.54.77a2.67,2.67,0,0,0,.25.43c.07.11.16.32.28.18s.32,0,.31-.25.18-.44.43-.12a.93.93,0,0,0,.15.13c.32-.6.3.11.46.15s.23.23.31.37c.17.35.31.29.45,0,.23-.45.69-.72.85-1.23.07-.21.17-.68.61-.19.23.25.28-.1.27-.27A4.47,4.47,0,0,1,92.62,97.58ZM59.55,67.14a8,8,0,0,1-2.39-4.75A12.89,12.89,0,0,1,56.89,57,4.29,4.29,0,0,0,56,59a10.45,10.45,0,0,0,.15,3.44,8,8,0,0,0,.87,2.75C57.61,66.17,58.76,66.42,59.55,67.14Zm-8.49,41.12a.67.67,0,0,1,.67.84,1.68,1.68,0,0,0,.77,1.9c.13.07.19.26.29.4s.13.42.37.34.18-.3.22-.49a5.1,5.1,0,0,0-.25-2.16c0-.25-.28-.54-.41-.48-.3.12-.4-.06-.5-.2C51.88,108,51.48,108.05,51.06,108.26ZM85.92,114a12,12,0,0,0,1.58,3.12c.1.13.19.38.43.23a1.92,1.92,0,0,0,.27-2.14A9.62,9.62,0,0,0,85.92,114ZM66.4,115.3c-.25-.21-.1-.64-.39-.76s-.19.28-.39.38-.56.49-.81.37a.57.57,0,0,0-.78.28,2.21,2.21,0,0,0-.52,1c0,.09-.1.2,0,.28s.22.06.34,0c.53-.13,1-.38,1.53-.54A1.61,1.61,0,0,0,66.4,115.3ZM78.94,28.93c0,.14,0,.28.07.42a5,5,0,0,1,.17,3c-.11.32,0,.56,0,.84s.31.19.46.28.32-.1.35-.22a2.52,2.52,0,0,0,.17-.72A6.67,6.67,0,0,0,78.94,28.93Zm-3.7,76.93a4.68,4.68,0,0,0,1,2.44.83.83,0,0,0,.84.33,5.84,5.84,0,0,1,1.37-.15A12.12,12.12,0,0,1,75.24,105.86Zm-20.6-2.3c.62,1.53,1.91,2.49,2.56,4C57.42,106.26,56,104.08,54.64,103.56Zm38.15,13a7.17,7.17,0,0,0-1.05-3.22.33.33,0,0,0-.42-.18c-.22.07-.13.22-.07.35a13.71,13.71,0,0,1,1,3.14c0,.21.07.62.36.56S92.72,116.73,92.79,116.51ZM67.33,93.79A6.64,6.64,0,0,0,67.49,92c-.09-.66-.58-1-1.44-1.1-.68,0-.74.51-.9.93a1.78,1.78,0,0,0,0,.66c.27-.26.18-.69.56-.89A4.07,4.07,0,0,0,65.81,94a4.24,4.24,0,0,1,.29-1.92c.2-.39.24-.59-.23-.87,1,.15,1.23.38,1.25,1.23A2.3,2.3,0,0,0,67.33,93.79Zm16.49,3.94c.84,1.49.59,3.32,1.41,4.81C85.36,100.75,85.24,99,83.82,97.73Zm2.86,11.46c.13.16,0,.4.19.54.94.67,1.86,1.36,2.81,2,.32.22.51.6.94.67A10.18,10.18,0,0,0,86.68,109.19ZM74.35,97.6c0,.18,0,.35.12.39a.63.63,0,0,0,.54-.13,4.72,4.72,0,0,0,1-1.21c.5-.78-.5-.38-.59-.72,0-.14-.13-.13-.29,0A3.49,3.49,0,0,0,74.35,97.6Zm23-28.37a12.82,12.82,0,0,0-.9,7.73.17.17,0,0,0,.14-.18,16.73,16.73,0,0,0,0-2.92,5.42,5.42,0,0,1,.51-3.18A2.75,2.75,0,0,0,97.37,69.23Zm7.41,49.83c.18.26.44.25.56.51s.39,0,.59-.09.21,0,0-.2c-.41-.37,0-.51.23-.59a8.38,8.38,0,0,1,1.13-.23c-.69-.09-.61-.34-.31-.81a1,1,0,0,0,0-1.24c0,.59,0,1.12-.68,1.26-.06,0-.12,0-.05.11.37.35-.06.4-.22.52A4.12,4.12,0,0,1,104.78,119.06ZM52.35,62.75c0,.13,0,.26,0,.38.11.47.59.84,1,.66s.15-.54.1-.84c0-.14,0-.34-.11-.41s-.23-.76-.62-.66S52.4,62.42,52.35,62.75Zm35.27,28.9a2.54,2.54,0,0,0-2.62,2c0,.16-.17.37,0,.44a.78.78,0,0,0,.54-.12c.27-.13.08-.21,0-.34s.07-.21.11-.32A2.75,2.75,0,0,1,87.62,91.65ZM59.33,117.47h0a1.55,1.55,0,0,0-.06.31c0,.29.25.34.48.41s.35,0,.3-.18c-.15-.42.21-.67.27-1,0-.12,0-.25,0-.37-.33.06-.45-.37-.7-.34s-.22.35-.28.55A4.22,4.22,0,0,0,59.33,117.47ZM86.78,119a4.44,4.44,0,0,0-.42,1.81c0,.18,0,.52.34.5s.32-.2.26-.51A15,15,0,0,1,86.78,119ZM84.7,102.37c-.36-1.31-.71-2.62-1.07-3.92C83.36,99.92,84.16,101.11,84.7,102.37Zm3.09,10.46a2.65,2.65,0,0,0-2.46-1.07A22.21,22.21,0,0,0,87.79,112.83Zm-16.52-5.24c-.77-.64-1.41-1.42-2.19-2C69.64,106.42,70.13,107.35,71.27,107.59Zm11,.42a7.77,7.77,0,0,0-1.62-2.59A5.48,5.48,0,0,0,82.27,108Zm-30.66,2.74c-.19-.5-.73-.66-1-1.11-.1-.2-.22-.23-.33,0s-.33.1-.11.4C50.59,110.53,51.12,110.55,51.61,110.75ZM50,42.79a4.41,4.41,0,0,0-3.11-.62A18.21,18.21,0,0,1,50,42.79Zm19,74.9c-.24-1-.24-1,.3-1.22-.34-.14-.76-.35-.91,0S68.52,117.34,68.92,117.69Zm4.85-22.43A9.41,9.41,0,0,1,75,93.88C74,94.11,73.81,94.35,73.77,95.26ZM95.31,106.2c0-.82.24-1.6.23-2.4A3.61,3.61,0,0,0,95.31,106.2Zm10.94,6.32c.84.11.84.11.5-.75C106.57,112,106.3,112.15,106.25,112.52Zm-35.07,5.83c0,.57-.62,1.09-.15,1.78A16.2,16.2,0,0,1,71.18,118.35Zm20.51-1.45.11,0-.27-1.41c0-.12-.06-.22-.2-.19s-.08.17,0,.25C91.41,116,91.55,116.44,91.69,116.9Zm7.73-8.33c.57.07,1.1.31,1.67.38A2.08,2.08,0,0,0,99.42,108.57Zm-46.55-39c-.2.68.28.86.41,1.23l.16-.09Zm-1,37.1a1.72,1.72,0,0,0-1.64-.36A3.77,3.77,0,0,1,51.87,106.65Zm35.77.8c-.17,0-.18-.32-.4-.2C87.29,107.52,87.53,107.33,87.64,107.45ZM40.48,46.39c.17-.08.44,0,.44-.34Zm14.59,58.73a.49.49,0,0,0,.17.5C55.32,105.4,55.2,105.28,55.07,105.12Zm.47.78c0,.17,0,.31.24.36A.42.42,0,0,0,55.54,105.9Zm46.76,9.66c-.06,0-.13,0-.15.08s-.23.15,0,.19A.18.18,0,0,0,102.3,115.56ZM38.15,48.64l-.09-.12-.16.17a.2.2,0,0,0,.06.07Zm64.93,65.07s0,0,0,0l0,0,.06.07ZM40.49,41.16s-.05.06-.05.09,0,0,.06.07.06,0,0-.07S40.52,41.19,40.49,41.16ZM82,105.23v-.06l-.08,0s0,0,0,0ZM50.44,50.75l0,0,0,0,.06.06ZM74.12,38.16l0,0,0,.1h.1ZM87,106.92l-.11-.08s0,0-.06.06L87,107S87,107,87,106.92ZM77.6,30.18l0,0h0Zm-5.76-1.13-.06-.1s0,0,0,0l.05.1ZM71.05,106s0,0,0,0,0,0,0,0l.07,0ZM62.2,120.34h0l0,0Z"/><path class="cls-2" d="M109.48,117.31a6.17,6.17,0,0,1-.2-2.83c.47.69.27,1.48.32,2.23C109.57,116.91,109.73,117.15,109.48,117.31Z"/><path class="cls-2" d="M62.65,124.69c.11.64-.27,1.18-.37,1.77-.47,0-.66-.19-.41-.66a2.57,2.57,0,0,0,.26-.75C62.18,124.72,62.37,124.65,62.65,124.69Z"/><path class="cls-2" d="M64.15,127c.06-.13-.16-.35,0-.39.33-.08.43.25.59.46-.15.25-.29.06-.43,0s-.08-.1-.15,0Z"/><path class="cls-2" d="M97.77,124.52l.14-.12C97.92,124.51,97.84,124.51,97.77,124.52Z"/><path class="cls-2" d="M80.45,122.86c.76.2,1.42.65,2.18.87a4.16,4.16,0,0,1,1.23.37c.5.31.85.66.62,1.3-.81,1-2,1.1-3.18,1.42-.39.12-.82,0-1.19.25l-.14,0a6.13,6.13,0,0,0-2.91.41,3.16,3.16,0,0,1-2.08,0,8,8,0,0,0-4.66,0,2.22,2.22,0,0,1-.89,0,13,13,0,0,1,2.23-.58,9.53,9.53,0,0,1,3.87.16,3,3,0,0,0,1.66-.11,5.89,5.89,0,0,1,2.53-.42,5.21,5.21,0,0,0,2.42-.59c.2-.09.43-.18.45-.52a2.37,2.37,0,0,1-1.24,0c.39-.31.85-.2,1.22-.41a1.5,1.5,0,0,0-.77-.54c-.26-.09-.51-.15-.47-.52s-.2-.25-.36-.3a5.43,5.43,0,0,1-2.78-2Z"/><path class="cls-2" d="M78,122.41a16.12,16.12,0,0,1,2,1.89.92.92,0,0,1-.1,1.07c-.18.27-.49.15-.76.06a.34.34,0,0,1-.28-.36A4.54,4.54,0,0,0,78,122.41Z"/><path class="cls-2" d="M71.89,126.46a3.68,3.68,0,0,1-1.4.1c-.32,0-.63,0-.95,0a4.18,4.18,0,0,1-.68-.16c.62-.43,4.5-.45,5.15.07Z"/><path class="cls-2" d="M76.58,123.58a22.75,22.75,0,0,1-.44-2.75C76.71,121.08,76.92,122.38,76.58,123.58Z"/><path class="cls-2" d="M68.48,125.41c.39-.7,1.08-1.13,1.52-1.78.27.05.47.18.25.46a1.91,1.91,0,0,1-.73.68c-.2.08-.44,0-.37.4A.38.38,0,0,1,68.48,125.41Z"/><path class="cls-2" d="M75.91,119a.27.27,0,0,1-.41-.13c-.23-.37-.47-.74-.69-1.12-.06-.1-.22-.26,0-.36a.32.32,0,0,1,.42.19Z"/><path class="cls-2" d="M77.82,122.22l-.06,0,.06-.06,0,0Z"/><path class="cls-2" d="M63.7,126.16l-.06,0,.06-.06,0,0Z"/><path class="cls-2" d="M60,123.76a1.83,1.83,0,0,0-.38-1.15c0-.45-.37-.8-.37-1.26.67.89,1.69,3.13,1.51,4.21,0,.12,0,.26-.12.34C60.24,125.24,60.44,124.4,60,123.76Z"/><path class="cls-2" d="M45.09,112.76l-.1.43c-.12.06-.13.17-.1.29h0c-.52.42-.37,1.1-.68,1.61.13-1.69,1.23-3.32.35-5.09A4,4,0,0,1,45.09,112.76Z"/><path class="cls-2" d="M43.85,110.28c.36,1.11.75,2.21-.23,3.18C44,112.42,43.73,111.34,43.85,110.28Z"/><path class="cls-2" d="M61.11,120.47s-.06.06-.09.06a.08.08,0,0,1-.08-.12.13.13,0,0,1,.11,0S61.09,120.43,61.11,120.47Z"/><path class="cls-2" d="M54.4,122.75l-.14.09s0,0,0,0l.15-.09Z"/><path class="cls-2" d="M56.77,123.17l.06,0v.08h-.06S56.78,123.18,56.77,123.17Z"/><path class="cls-2" d="M51.59,33c-.19.13-.21-.07-.28-.15C51.43,32.83,51.55,32.82,51.59,33Z"/><path class="cls-2" d="M103.33,115.11l0,0,0-.07s0,0,0,0S103.32,115.1,103.33,115.11Z"/><path class="cls-2" d="M47.26,35.12s-.06-.1-.08-.15l0,0,.09.15Z"/><path class="cls-2" d="M47.92,68.83a2.68,2.68,0,0,1-1.41,2.73c-.29.19-.33.29-.55-.17-.37-.77,0-1.28.35-1.94a6.1,6.1,0,0,1-1.8.4.59.59,0,0,1-.58-.36c-.15-.31.2-.31.34-.4a5.16,5.16,0,0,1,2.35-1C47.06,68.36,47.58,68.43,47.92,68.83Z"/><path class="cls-2" d="M46.38,67.94a4.73,4.73,0,0,1-1.58-.68c-.09,0-.21-.11-.17-.24s.19-.19.34-.22a4.17,4.17,0,0,1,2,.39,3.7,3.7,0,0,1,.47.25c0-.28-.15-.5,0-.8L48,68.45A3.18,3.18,0,0,0,46.38,67.94Z"/><path class="cls-2" d="M48.3,68.67c.3.12.61.23.91.37a1.87,1.87,0,0,0,1.31.2c.37-.09.77-.14.95.35-1.26.79-2.24.2-3.18-.6C48.3,68.88,48.15,68.77,48.3,68.67Z"/><path class="cls-2" d="M44.88,56.3l-.11-.17a.15.15,0,0,1,.24.07Z"/><path class="cls-2" d="M98.11,75.58a3.11,3.11,0,0,1,2.34-3.53c.27,0,.49,0,.49.3A3.31,3.31,0,0,1,100,75c-.31-.34-.09-.76-.29-1.17C99.08,74.33,98.8,75.13,98.11,75.58Z"/><path class="cls-2" d="M85.93,97.57c-.5-.5-.2-1.08-.18-1.63a2.37,2.37,0,0,1,.43-1c0-.08.14-.14,0-.23h0c.68-.27,1.35-.59,2-.81a4.2,4.2,0,0,0,3.27-3.42,3.93,3.93,0,0,1-2.11,3.6,14.11,14.11,0,0,1-2.76,1.28c-.4.11-.45.48-.45.86S86.33,97.2,85.93,97.57Z"/><path class="cls-2" d="M104.45,43.59s-.07.07-.11.07-.17,0-.15-.12a.15.15,0,0,1,.1-.12C104.38,43.41,104.43,43.47,104.45,43.59Z"/><path class="cls-2" d="M101.38,52.82l.17-.12c.06.11,0,.18-.08.23Z"/><path class="cls-2" d="M62.65,58.85a6.57,6.57,0,0,1,1.13-2.68,1.18,1.18,0,0,1,1.29-.42c-.29.22-.56.43-.81.64,0,0-.19.08-.07.17s.16,0,.24,0l.39.22s0,0,0,0c-.19-.08-.17,0-.18.16a3.62,3.62,0,0,0-1.31,2.68c-.28,0-.64-.06-.32.41a.36.36,0,0,0-.2.4c-.45-.12-.23-.48-.18-.69A3.27,3.27,0,0,0,62.65,58.85Z"/><path class="cls-2" d="M62.87,60.56l.3,0c0,.09,0,.17.11.2A10.25,10.25,0,0,0,64,63.59c-.1.44-.35.19-.56.13a3.87,3.87,0,0,1-.58-3.1h0Z"/><path class="cls-2" d="M63.69,55.32A4.64,4.64,0,0,0,62.41,57a8.48,8.48,0,0,1-.62.94c-.08.1-.19.29-.35.17s-.08-.25,0-.35A4.88,4.88,0,0,1,63.5,55Z"/><path class="cls-2" d="M69.88,62.57a9,9,0,0,1-.77-3A1.29,1.29,0,0,1,69.4,59a24.76,24.76,0,0,0,1,3.7c0,.21-.17.23-.33.26a.1.1,0,0,1-.06-.08A.27.27,0,0,0,69.88,62.57Z"/><path class="cls-2" d="M78.68,53.34l-.48-.07A6.63,6.63,0,0,1,80.33,53c2,.22,4.06.18,6.09.39l-1,.06L80.6,53.4A5.17,5.17,0,0,0,78.68,53.34Z"/><path class="cls-2" d="M60.52,57.24a3.58,3.58,0,0,1,.08-1.66c.47.54.21,1.19.29,1.8h0Z"/><path class="cls-2" d="M84.55,53a18.42,18.42,0,0,1-3.06-.1l2.68,0C84.31,52.92,84.48,52.85,84.55,53Z"/><path class="cls-2" d="M67.77,54.33c-.17,0-.38.05-.52-.13A4.12,4.12,0,0,1,68.51,54c.16.07.38,0,.51.14Z"/><path class="cls-2" d="M86.58,53.15a5.4,5.4,0,0,1-2-.12C85.22,53.13,85.92,52.87,86.58,53.15Z"/><path class="cls-2" d="M91.32,82.32l.32.12c.13-.67,1.11-.46,1.3-1.16v1.09c0,.2,0,.45.21.48s.24-.23.3-.4a10.78,10.78,0,0,1,.42-1.07,10.17,10.17,0,0,1-.67,3.09h0a.28.28,0,0,0-.35.19c-.14.59-.7.75-1.07,1.09-.21.19-.57,0-.83-.08-1-.36-2-.76-3-1.15.49-.27,1.1-.1,1.57-.52A6.39,6.39,0,0,0,91,81.54a4.69,4.69,0,0,0,.34-1c0-.1.52-.52-.15-.44a1.54,1.54,0,0,1,0-.37c.16-1,.28-1.94.52-2.89a2.58,2.58,0,0,0-.21-1.9,1,1,0,0,1,.24-1.34,2,2,0,0,0,.32-.38c.15-.25.3-.26.39,0,.4,1.17.9,2.33.47,3.61a.37.37,0,0,0,.12.48,6.53,6.53,0,0,0-.39-4.19c.66.34.55,1.13,1.12,1.41.61-1.73-.31-3.38-.18-5.07.2,0,.22.12.25.26a8.94,8.94,0,0,0,.69,2.59,2.41,2.41,0,0,1,.21,1c0,1.2,0,2.4.08,3.6a2.66,2.66,0,0,1-1.35,2.11c-.36.28-.64.7-1.15.85-.28.07-.3.49-.37.81a7.61,7.61,0,0,1-.66,1.5,1.48,1.48,0,0,0-.34.79A1.33,1.33,0,0,0,91.32,82.32Z"/><path class="cls-2" d="M68.89,75.48s0,.07-.06.07h-1c1-.74,1.45-1.83,2.45-2.46a3.92,3.92,0,0,1,2.9-.53,6.87,6.87,0,0,1,1.7.47,2.42,2.42,0,0,0,1.5.18l0,0c0,.15.14.16.26.15a7,7,0,0,1,2,.35c.57.17,1.14-.18,1.63.2.11.08.22.14.29,0h0a16.36,16.36,0,0,0,2.88.21l4.75.17c.83,0,1.3-.63,1.89-1a2.09,2.09,0,0,1,1-.42c-1.14.81-2,2.15-3.62,2-1.36,0-2.72,0-4.08-.06-.91,0-1.81,0-2.71,0a22.63,22.63,0,0,1-5.77-1,5.09,5.09,0,0,0-3.52-.63,2.16,2.16,0,0,0-1.78,1.4v0c-.15,0-.2.11-.16.25h0C69,74.84,68.87,75.1,68.89,75.48Z"/><path class="cls-2" d="M72.19,90.19c-.24.26.11.45.09.73a1.38,1.38,0,0,1-1.06-.69c-.81-1.47-1.6-3-2.35-4.45-.38-.75-1-1.35-1.36-2.11.24-.15.33.16.43.14.46-.13.62.23.82.47s.57.73.84,1.1a15.38,15.38,0,0,0,2.78,2.86,5.06,5.06,0,0,1,1.51,2.05,1.93,1.93,0,0,0,1,1.21,1.6,1.6,0,0,1-2-.6,2.57,2.57,0,0,0-.65-.74L72.15,90l0,0S72.17,90.14,72.19,90.19Z"/><path class="cls-2" d="M64.22,88.22a3.59,3.59,0,0,1-1.85,1.41A1.26,1.26,0,0,1,61,89.16c-.29-.34-.05-.7.26-1a2.79,2.79,0,0,0,.38-.88.49.49,0,0,0,.32-.37c.11-.43.28-.58.7-.31.1.07.29.17.39,0s0-.31-.11-.45c-.45-.5-.72-1.13-1.19-1.63a.7.7,0,0,1-.24-.83l2.07,2.86c.27-.34.11-.64,0-.94-.53-1.08-1.32-2-1.76-3.14a7.18,7.18,0,0,1-.61-1.58l0,0c.36.13.36.54.6.76s.19.42.45.47v0a.69.69,0,0,0,.14.57l.08.15a32.25,32.25,0,0,0,2.25,3.44c.37.59.1,1-.16,1.5-.05.08-.15.14-.15.26h0C64.25,88.05,64.22,88.12,64.22,88.22Z"/><path class="cls-2" d="M58.09,72.75c.34.07.31.55.71.59,0-.49-.51-.77-.53-1.26a1,1,0,0,1,.67.5A6.9,6.9,0,0,1,60,75.76c.26,1.69.3,3.39.48,5.08a2.81,2.81,0,0,0,.7,1.46,2.43,2.43,0,0,1,.55.92c-.39,0-.46-.59-.89-.51,0,.22.26.34.15.62a2.25,2.25,0,0,1-1.09-1,3.13,3.13,0,0,1-.59-1.87,9.65,9.65,0,0,0-.93-4c-.2-.51-.8-.74-1-1.3l0,0c.77.26,1.12,1,1.69,1.49a4.18,4.18,0,0,0-.53-2.76,3.54,3.54,0,0,1-.55-1.12Z"/><path class="cls-2" d="M70.42,83.29c-.35-.23-.23-.65-.6-.78a6.18,6.18,0,0,1-.15,1.23c-.06.18.07.51-.22.48s-.36-.22-.51-.46c-.6-1-.64-2.15-1.2-3.13-.14-.24-.63-.41-.41-.67s.54.17.72.3C69.09,81,70.24,81.71,70.42,83.29Z"/><path class="cls-2" d="M65,74.79a5.18,5.18,0,0,0,1,2.77c.14.25.06.34-.07.46s-.23-.09-.3-.16a10,10,0,0,1-1.73-3.1c-.19-.44-.62-.81-.42-1.38,0-.11-.18-.29.08-.34s.26.1.34.24a12.94,12.94,0,0,1,.82,1.26c.06.13.12.28.32.25Z"/><path class="cls-2" d="M60.78,72.74c.63.29.65,1,1,1.48,1.25,1.86,1.86,4,2.89,6-1.73-2.27-2.47-5-3.9-7.48Z"/><path class="cls-2" d="M73,72c.17-.27.4-.23.67-.17,1.78.46,3.58.87,5.35,1.37a9.07,9.07,0,0,0,1.64.28c-.34.19-.75-.08-1.07.16a23.84,23.84,0,0,1-3-.64,25.27,25.27,0,0,0-3.43-.85h0Z"/><path class="cls-2" d="M79.22,87.83c.06-1.56.47-2.28,2-1.85.46.12.94.18,1.42.26.13,0,.28.06.27.2s-.18.18-.31.17a12.26,12.26,0,0,1-1.61,0C80,86.45,79.85,86.58,79.22,87.83Z"/><path class="cls-2" d="M56.92,68.07c0-.2,0-.47.32-.17A4.19,4.19,0,0,1,58.68,70a9.47,9.47,0,0,0,.89,2.79,6.31,6.31,0,0,1-1.37-2.56,2.46,2.46,0,0,0-1-1.75h0c0-.25-.14-.33-.32-.4Z"/><path class="cls-2" d="M85.17,77.92a18,18,0,0,0-2.81,1.41,5.38,5.38,0,0,1-3,.39,3,3,0,0,1,1.19-.26,6.32,6.32,0,0,0,2.55-1A3,3,0,0,1,85.17,77.92Z"/><path class="cls-2" d="M71,71.87A6.85,6.85,0,0,0,68.31,74c-.08,0-.32.18-.25-.07a5.47,5.47,0,0,1,3.57-2.6l.3.06C71.68,71.82,71.2,71.59,71,71.87Z"/><path class="cls-2" d="M65.14,82.87a10.18,10.18,0,0,1-2.52-3.57C63.56,80.42,64.21,81.74,65.14,82.87Z"/><path class="cls-2" d="M82.82,73.36a31.65,31.65,0,0,1,.4-3.64C83.2,71,83.47,72.2,82.82,73.36Z"/><path class="cls-2" d="M72.85,81.58a2,2,0,0,1,.7,2.19Z"/><path class="cls-2" d="M68.77,79.88a3.45,3.45,0,0,1-.83-1.29,12,12,0,0,0,1.83,1.88c.2.15,0,.19-.11.26s-.09-.08-.12-.11c-.27-.23-.52-.49-.77-.74Z"/><path class="cls-2" d="M66.61,86.61a2.77,2.77,0,0,1,1.68,1.5l0,0a21.67,21.67,0,0,1-1.67-1.51Z"/><path class="cls-2" d="M75.9,82.66c.33-.73-.07-1.53.29-2.23A3.16,3.16,0,0,1,75.9,82.66Z"/><path class="cls-2" d="M81.12,89.68a4,4,0,0,1-.72,1.25,1.53,1.53,0,0,1,.68-1.28Z"/><path class="cls-2" d="M87.6,71.49a2.25,2.25,0,0,1-.73,1l-.05,0c.25-.35.24-.88.77-1Z"/><path class="cls-2" d="M69,89.05c-.29-.27-.66-.47-.77-.89l0,0a1.37,1.37,0,0,1,.76.9Z"/><path class="cls-2" d="M65.07,84.36a.85.85,0,0,1-.55-.8Z"/><path class="cls-2" d="M58.08,72.76c-.37-.12-.4-.46-.51-.76l0,0a.85.85,0,0,1,.49.78Z"/><path class="cls-2" d="M65.65,85.13c-.31,0-.37-.27-.63-.54A.72.72,0,0,1,65.65,85.13Z"/><path class="cls-2" d="M87.59,71.48a.71.71,0,0,1,.49-.75l-.48.76Z"/><path class="cls-2" d="M58.63,79.07c-.33-.25-.45-.42-.47-.65C58.38,78.52,58.5,78.69,58.63,79.07Z"/><path class="cls-2" d="M66.59,79.13a1.27,1.27,0,0,1,.61.66C66.92,79.61,66.68,79.54,66.59,79.13Z"/><path class="cls-2" d="M56.89,76.91l.49.55A.67.67,0,0,1,56.89,76.91Z"/><path class="cls-2" d="M61.48,77.46a.65.65,0,0,1,.29.58A.71.71,0,0,1,61.48,77.46Z"/><path class="cls-2" d="M69.94,80.79c.26,0,.45,0,.4.2s-.15.07-.21,0A.86.86,0,0,0,69.94,80.79Z"/><path class="cls-2" d="M57.44,75.18c-.14-.1-.34-.13-.48-.39.27.08.46.11.51.36Z"/><path class="cls-2" d="M56.45,73.37c.28,0,.31.3.39.5l0,0c-.22-.1-.27-.33-.39-.51Z"/><path class="cls-2" d="M66.58,86.65a.52.52,0,0,1-.49-.28l0,0a.49.49,0,0,1,.49.26Z"/><path class="cls-2" d="M57.57,72c-.11-.12-.23-.23-.19-.43.24.06.18.26.22.41Z"/><path class="cls-2" d="M58.91,79.54c-.18-.06-.21-.17-.15-.34C58.87,79.3,59,79.37,58.91,79.54Z"/><path class="cls-2" d="M56.84,73.87a.45.45,0,0,1,.38.39l0,0c-.13-.12-.26-.25-.38-.38Z"/><path class="cls-2" d="M66.09,86.37l-.39-.23c.29-.1.38,0,.42.21Z"/><path class="cls-2" d="M85.66,84.94c0-.14,0-.34.22-.39a.46.46,0,0,1-.18.42Z"/><path class="cls-2" d="M65.48,83a.28.28,0,0,1,.13.09c.06.07,0,.12-.07.11a.24.24,0,0,1-.16-.07C65.34,83,65.39,83,65.48,83Z"/><path class="cls-2" d="M65.76,83.36c.19,0,.32,0,.35.06s-.09.1-.16.07Z"/><path class="cls-2" d="M57.22,74.26c.09,0,.19,0,.17.18s-.09,0-.1,0a1.14,1.14,0,0,1-.1-.19Z"/><path class="cls-2" d="M57.67,77.69l-.06.12-.11-.09s0-.07,0-.1Z"/><path class="cls-2" d="M81.08,89.65c0-.11,0-.26.14-.31s0,0,0,0a.37.37,0,0,1-.15.31Z"/><path class="cls-2" d="M56.36,67.06s-.06.08-.07.07-.12,0-.14-.1,0-.11.08-.08S56.32,67,56.36,67.06Z"/><path class="cls-2" d="M88.22,85.23,88,85.12s0-.09,0-.1.16.08.19.17Z"/><path class="cls-2" d="M62.3,78.85c.11,0,.2,0,.18.18s-.09,0-.09,0a1.36,1.36,0,0,1-.11-.2Z"/><path class="cls-2" d="M68.77,79.88l-.14.12c0-.11.11-.06.14-.12Z"/><path class="cls-2" d="M62,78.27s0,.09,0,.1-.08,0-.08-.09,0-.06,0-.09Z"/><path class="cls-2" d="M86.87,72.53l-.11.26s0,0,0,0a.23.23,0,0,1,.1-.25Z"/><path class="cls-2" d="M62.28,78.87a.23.23,0,0,1-.11-.26l0,0c0,.09.05.18.08.27Z"/><path class="cls-2" d="M67.35,83.44v0l-.06-.06,0,0Z"/><path class="cls-2" d="M69.05,89l.15.08s0,0,0,0L69,89.05Z"/><path class="cls-2" d="M65.3,75.68a.08.08,0,0,1,0,0s0,0,0,0l0-.08Z"/><path class="cls-2" d="M86.41,73.05l0,0,0,.08h-.06A.07.07,0,0,1,86.41,73.05Z"/><path class="cls-2" d="M66,78.31h0a0,0,0,0,1,0,.05s0,0-.07,0A.17.17,0,0,1,66,78.31Z"/><path class="cls-2" d="M56.3,73.27l-.09-.14,0,0,.08.17Z"/><path class="cls-2" d="M61.13,80.9,61,80.76l.05,0,.07.16Z"/><path class="cls-2" d="M60.75,72.76l-.09-.14.05,0a1.11,1.11,0,0,0,.07.16Z"/><path class="cls-2" d="M56.33,73.25l.12.12,0,0-.12-.13Z"/><path class="cls-2" d="M86.19,35.65a7.66,7.66,0,0,1,1.15,3.22c0,.29,0,.27-.35.58-.11.11-.11.35-.15.53a2,2,0,0,1-.41,1c-.6-.48-.27-1.07-.25-1.62a7.25,7.25,0,0,0-.37-1.58c0-.19-.38-.5.18-.52.12,0,0-.21,0-.32a6,6,0,0,1-.35-1.27l.72,1.12.09,0Z"/><path class="cls-2" d="M93.79,44.32a8,8,0,0,1-1,1.58c-.08.08-.26.26-.27.15s-.29-.23-.29-.37A1.34,1.34,0,0,1,93.79,44.32Z"/><path class="cls-2" d="M84.35,46.29a3.23,3.23,0,0,1,.25,2.3C84.09,47.81,84.38,47,84.35,46.29Z"/><path class="cls-2" d="M94.06,43.34c-.85-.36-1.77-.64-2-1.73A7,7,0,0,0,94.06,43.34Z"/><path class="cls-2" d="M72.28,49c-1.73-.62-1.73-.62-2.09.14.36.08.77,0,1,.39s.38.6-.06.87c-.08,0-.07.07.18.18-1.8.47-2.4-.64-2.67-2a28.46,28.46,0,0,1,0-3.33.43.43,0,0,1,.27-.46,2.43,2.43,0,0,0,1.09-1,2.45,2.45,0,0,0,.23,1.74,6.33,6.33,0,0,1,.42,1.83.79.79,0,0,0,.5.71A2.32,2.32,0,0,1,72.28,49Z"/><path class="cls-2" d="M63.93,48.76c1,.33,2.09.13,3,1.12-.91-.07-1.65-.1-2.38-.19C64.09,49.63,64,49.24,63.93,48.76Z"/><path class="cls-2" d="M74.14,41.14a10.81,10.81,0,0,0-3.32,1.38A3.42,3.42,0,0,1,74.14,41.14Z"/><path class="cls-2" d="M70.22,43.31c-.07-.24,0-.34.16-.53A.53.53,0,0,1,70.22,43.31Z"/><path class="cls-2" d="M50.44,54.84c-.48-.25-.48-.78-.69-1.18a2.34,2.34,0,0,1,.71,1.16Z"/><path class="cls-2" d="M51.29,51.34l0,0c0,.06,0,.06-.07,0a.06.06,0,0,1,0-.06Z"/><path class="cls-2" d="M50.58,55l-.14-.11,0,0,.12.13Z"/><path class="cls-2" d="M50.58,55l.05.06h0a.07.07,0,0,1,0,0Z"/><path class="cls-2" d="M60.3,46.43c.59.58,1.17,1.11.92,2-.29-.17-.24-.54-.47-.72s-.13-.23-.23-.29C59.91,47.12,59.91,47.12,60.3,46.43Z"/><path class="cls-2" d="M59.86,51.06a1.05,1.05,0,0,0-.19-.57c-.09-.21,0-.34.2-.39.06.49.66.8.49,1.42A1.24,1.24,0,0,1,59.86,51.06Z"/><path class="cls-2" d="M57.6,54.21a.87.87,0,0,1-.61.39c0-.35.28-.39.48-.5Z"/><path class="cls-2" d="M68.51,122.61a.36.36,0,0,1,.32-.16s0,0,0,0-.2.11-.31.15Z"/><path class="cls-2" d="M68.76,102.27a.26.26,0,0,1-.29-.17s0,0,0,0,.21.1.27.2Z"/><path class="cls-2" d="M93.77,109a5.43,5.43,0,0,1-.63-3A11.2,11.2,0,0,1,93.77,109Z"/><path class="cls-2" d="M76.78,101.5l.1.12-.07,0,0-.16Z"/><path class="cls-2" d="M51.86,34.43c-.09-.09-.31-.18-.18-.31s.25.07.33.2Z"/><path class="cls-2" d="M82.41,106.44l0,.08-.08,0Z"/><path class="cls-2" d="M86.88,112.48l0,0s0,0,0,0,0,0,0,0Z"/><path class="cls-2" d="M77.42,6.36a2,2,0,0,0,.26.1,2.77,2.77,0,0,1,2.6,2.71,6.92,6.92,0,0,1,0,1.44,2.34,2.34,0,0,1-1.45,2c-.37.17-.75.3-1.25.5a6.38,6.38,0,0,0,3.05-.28c0,1,.12,2,.15,3a.49.49,0,0,1-.34.33c-1.17.08-2.34.17-3.51.16a2.2,2.2,0,0,1-2.18-1.75c-.32-1-.33-1-1.5-.87l.13,2.81-4.27.25-.56-10,3.08-.19,3.22-.23Zm-4.29,4.76,2.37-.22a.58.58,0,0,0,.55-.68.57.57,0,0,0-.61-.62c-.79,0-1.57,0-2.42,0Z"/><path class="cls-2" d="M26.7,29.75a10.3,10.3,0,0,1,5.37-6,3.69,3.69,0,0,1,4.72.87l-1.38,1.52L34,27.66a2,2,0,0,0-2.85.79,1.65,1.65,0,0,0,.31,2.37,1.67,1.67,0,0,0,2.31.45,2.16,2.16,0,0,0,1.07-2.94L38,25.73a3.52,3.52,0,0,1,.93,4.13,10.63,10.63,0,0,1-5.69,5.48,3.75,3.75,0,0,1-3.82-.6A7,7,0,0,1,26.7,31Z"/><path class="cls-2" d="M130.79,31.83h0c-.56.83-1.35.66-2.16.55-1.39-.21-2.78-.37-4.09-.54L127.61,35l-2.54,2.51-7-7.08c.57-.57,1.2-1.21,1.87-1.82a.79.79,0,0,1,.57-.13c1.69.17,3.37.36,5.08.55l-2.91-2.88,2.54-2.53,5.53,5.45Z"/><path class="cls-2" d="M45.88,18.14,44.1,15.05l3.72-2.15,5,8.66-3.71,2.15-1.8-3.08-2.46,1.42,1.78,3.09-3.71,2.15-5-8.66,3.72-2.15,1.8,3.08Z"/><path class="cls-2" d="M59,17.87v.44c0,1,0,1-.94,1.33l-3.46,1c0-.2,0-.33,0-.46.09-3.22.18-6.44.25-9.66a.46.46,0,0,1,.41-.51c1.81-.53,3.61-1.08,5.43-1.6a.54.54,0,0,1,.51.14q2.9,4.11,5.75,8.26A.38.38,0,0,1,67,17l-4.44,1.33a9.57,9.57,0,0,1-.53-.9c-.15-.31-.34-.35-.65-.25C60.59,17.4,59.83,17.62,59,17.87Zm1.4-3.13L58.84,12l-.13,0,.17,3.12Z"/><path class="cls-2" d="M111.56,21.35l-4.45-2.24-.34.61,5.1,2.59-1.41,2.81-8.94-4.5,4.5-9,8.82,4.44-1.42,2.82-5-2.5-.32.62,4.45,2.26Z"/><path class="cls-2" d="M83.25,16.36l1.54-9.89L89,7.13c-.34,2.17-.66,4.3-1,6.49l5.07.8-.52,3.39Z"/><path class="cls-2" d="M98,9l4.09,1.3-3,9.54-4.09-1.3Z"/><path class="cls-2" d="M119,103.73v1.62c0,.51,0,1,0,1.52,0,.25.08.3.3.29h3.58a.66.66,0,0,1,.68.87.68.68,0,0,1-.57.47h-9.18a.67.67,0,1,1,0-1.34h3.83v-3.41c-.57-.09-1.12-.15-1.67-.27a10.37,10.37,0,0,1-8.11-10c0-1.94,0-3.89,0-5.84a.65.65,0,0,1,.44-.69.62.62,0,0,1,.74.2,1,1,0,0,1,.16.54c0,1.84,0,3.68,0,5.53a8.53,8.53,0,0,0,.61,3.31,8.87,8.87,0,0,0,7.41,5.74,9.1,9.1,0,0,0,10.25-8.95c0-1.9,0-3.79,0-5.69a.67.67,0,0,1,.94-.67.64.64,0,0,1,.4.66c0,.91,0,1.83,0,2.75,0,1.11,0,2.22,0,3.33a10.42,10.42,0,0,1-9.61,10Z"/><path class="cls-2" d="M119.78,78.93a.51.51,0,1,1,0-1,.5.5,0,0,1,.5.51A.51.51,0,0,1,119.78,78.93Z"/><path class="cls-2" d="M120.31,80a.51.51,0,0,1-.52.52.52.52,0,0,1-.53-.52.54.54,0,0,1,.52-.51A.52.52,0,0,1,120.31,80Z"/><path class="cls-2" d="M115.81,77a.52.52,0,0,1-.53.52.52.52,0,0,1,0-1A.51.51,0,0,1,115.81,77Z"/><path class="cls-2" d="M116.78,78.93a.5.5,0,0,1-.51-.53.5.5,0,0,1,.54-.49.51.51,0,1,1,0,1Z"/><path class="cls-2" d="M124.81,79.09a.52.52,0,1,1-1,0,.53.53,0,0,1,.53-.52A.53.53,0,0,1,124.81,79.09Z"/><path class="cls-2" d="M119.77,82.73a.52.52,0,0,1,.54.51.52.52,0,0,1-.52.53.55.55,0,0,1-.53-.5A.54.54,0,0,1,119.77,82.73Z"/><path class="cls-2" d="M116.79,80.54a.5.5,0,0,1-.52-.51.51.51,0,0,1,.5-.52.52.52,0,1,1,0,1Z"/><path class="cls-2" d="M118.29,81.55a.52.52,0,1,1,.52-.52A.52.52,0,0,1,118.29,81.55Z"/><path class="cls-2" d="M116.8,81.12a.53.53,0,0,1,.51.54.53.53,0,0,1-.52.5.52.52,0,1,1,0-1Z"/><path class="cls-2" d="M115.3,83.27a.52.52,0,1,1,0-1,.52.52,0,1,1,0,1Z"/><path class="cls-2" d="M118.81,79.5a.52.52,0,1,1-1,0,.52.52,0,0,1,1,0Z"/><path class="cls-2" d="M121.81,79.91a.52.52,0,0,1-.54.5.52.52,0,0,1,0-1A.53.53,0,0,1,121.81,79.91Z"/><path class="cls-2" d="M120.31,76.8a.52.52,0,0,1-1,0,.52.52,0,0,1,.51-.53A.52.52,0,0,1,120.31,76.8Z"/><path class="cls-2" d="M115.82,85.62a.54.54,0,0,1-.54.51.52.52,0,1,1,0-1A.55.55,0,0,1,115.82,85.62Z"/><path class="cls-2" d="M119.78,85.38a.52.52,0,0,1-.52-.53.54.54,0,0,1,.55-.51.52.52,0,0,1,0,1Z"/><path class="cls-2" d="M121.3,82.24a.51.51,0,0,1,.51.53.53.53,0,0,1-1,0A.53.53,0,0,1,121.3,82.24Z"/><path class="cls-2" d="M118.81,78a.52.52,0,0,1-.52.53.53.53,0,0,1-.53-.52.54.54,0,0,1,.54-.52A.52.52,0,0,1,118.81,78Z"/><path class="cls-2" d="M117.31,73.58a.53.53,0,0,1-.53.52.53.53,0,0,1-.52-.5.52.52,0,0,1,.52-.53A.52.52,0,0,1,117.31,73.58Z"/><path class="cls-2" d="M123.31,78.41a.51.51,0,0,1-.53.51.52.52,0,0,1-.51-.51.53.53,0,0,1,.52-.53A.52.52,0,0,1,123.31,78.41Z"/><path class="cls-2" d="M112.81,79.1a.52.52,0,0,1-.53.52.51.51,0,0,1-.51-.53.52.52,0,0,1,.53-.51A.53.53,0,0,1,112.81,79.1Z"/><path class="cls-2" d="M115.81,79.91a.53.53,0,0,1-.54.5.51.51,0,0,1-.5-.54.53.53,0,0,1,.52-.5A.54.54,0,0,1,115.81,79.91Z"/><path class="cls-2" d="M121.81,81.33a.54.54,0,0,1-.5.52.53.53,0,0,1-.54-.52.52.52,0,0,1,1,0Z"/><path class="cls-2" d="M119.79,82.16a.54.54,0,0,1-.53-.53.53.53,0,0,1,.54-.51.53.53,0,0,1,.51.51A.53.53,0,0,1,119.79,82.16Z"/><path class="cls-2" d="M116.78,74.67a.54.54,0,0,1,.53.52.53.53,0,0,1-.5.52.53.53,0,0,1-.55-.5A.55.55,0,0,1,116.78,74.67Z"/><path class="cls-2" d="M120.31,75.18a.53.53,0,0,1-.51.54.53.53,0,0,1,0-1A.54.54,0,0,1,120.31,75.18Z"/><path class="cls-2" d="M113.8,77.88a.54.54,0,0,1,.51.54.53.53,0,0,1-.55.5.51.51,0,0,1-.49-.52A.52.52,0,0,1,113.8,77.88Z"/><path class="cls-2" d="M123.31,83.26a.5.5,0,0,1-.54.5.51.51,0,0,1-.5-.51.52.52,0,1,1,1,0Z"/><path class="cls-2" d="M116.78,84.34a.54.54,0,0,1,.53.52.53.53,0,0,1-.53.52.52.52,0,0,1-.51-.5A.53.53,0,0,1,116.78,84.34Z"/><path class="cls-2" d="M113.27,76.77a.5.5,0,0,1,.51-.5.52.52,0,0,1,.53.52.53.53,0,0,1-.53.52A.51.51,0,0,1,113.27,76.77Z"/><path class="cls-2" d="M123.31,76.78a.52.52,0,0,1-.52.53.52.52,0,1,1,0-1A.51.51,0,0,1,123.31,76.78Z"/><path class="cls-2" d="M123.31,84.88a.52.52,0,0,1-1,0,.54.54,0,0,1,.53-.52A.53.53,0,0,1,123.31,84.88Z"/><path class="cls-2" d="M121.81,85.62a.51.51,0,0,1-.53.51.53.53,0,0,1-.52-.51.56.56,0,0,1,.53-.53A.52.52,0,0,1,121.81,85.62Z"/><path class="cls-2" d="M115.29,83.67a.52.52,0,0,1,.52.52.53.53,0,0,1-.51.51.52.52,0,1,1,0-1Z"/><path class="cls-2" d="M121.26,76.11a.5.5,0,0,1-.49-.55.52.52,0,1,1,.49.55Z"/><path class="cls-2" d="M120.31,73.59a.53.53,0,0,1-.53.52.56.56,0,0,1-.52-.52.53.53,0,0,1,.53-.52A.51.51,0,0,1,120.31,73.59Z"/><path class="cls-2" d="M115.81,74.18a.53.53,0,0,1-.54.51.52.52,0,0,1,0-1A.53.53,0,0,1,115.81,74.18Z"/><path class="cls-2" d="M121.29,74.69a.53.53,0,0,1-.53-.52.55.55,0,0,1,.51-.52.52.52,0,0,1,.54.51A.52.52,0,0,1,121.29,74.69Z"/><path class="cls-2" d="M117.31,76.81a.52.52,0,1,1-.52-.52A.52.52,0,0,1,117.31,76.81Z"/><path class="cls-2" d="M121.81,77a.51.51,0,0,1-.52.52.53.53,0,0,1-.53-.52.53.53,0,0,1,.51-.51A.51.51,0,0,1,121.81,77Z"/><path class="cls-2" d="M113.79,83.77a.52.52,0,1,1,.52-.54A.54.54,0,0,1,113.79,83.77Z"/><path class="cls-2" d="M124.81,80.74a.52.52,0,0,1-.53.51.53.53,0,0,1-.51-.52.52.52,0,1,1,1,0Z"/><path class="cls-2" d="M118.81,85.61a.52.52,0,0,1-.53.52.52.52,0,0,1-.51-.51.53.53,0,0,1,.5-.53A.55.55,0,0,1,118.81,85.61Z"/><path class="cls-2" d="M121.81,84.18a.51.51,0,0,1-.52.52.52.52,0,1,1,0-1A.52.52,0,0,1,121.81,84.18Z"/><path class="cls-2" d="M113.79,84.34a.54.54,0,0,1,.52.53.53.53,0,0,1-.51.51.52.52,0,1,1,0-1Z"/><path class="cls-2" d="M115.28,76.12a.52.52,0,0,1-.51-.53.51.51,0,0,1,.54-.5.5.5,0,0,1,.5.51A.52.52,0,0,1,115.28,76.12Z"/><path class="cls-2" d="M115.29,80.81a.52.52,0,0,1,.52.53.52.52,0,1,1-1,0A.51.51,0,0,1,115.29,80.81Z"/><path class="cls-2" d="M120.77,78.43a.52.52,0,1,1,.47.55A.52.52,0,0,1,120.77,78.43Z"/><path class="cls-2" d="M124.29,77a.52.52,0,0,1,0,1,.53.53,0,0,1-.54-.51A.51.51,0,0,1,124.29,77Z"/><path class="cls-2" d="M117.31,83.25a.53.53,0,0,1-.52.52.52.52,0,0,1-.52-.53.53.53,0,0,1,.51-.51A.53.53,0,0,1,117.31,83.25Z"/><path class="cls-2" d="M115.81,78.46a.52.52,0,0,1-.53.52.52.52,0,1,1,0-1A.53.53,0,0,1,115.81,78.46Z"/><path class="cls-2" d="M123.31,75.19a.51.51,0,0,1-.54.5.52.52,0,0,1-.5-.52.52.52,0,1,1,1,0Z"/><path class="cls-2" d="M112.29,80.21a.53.53,0,0,1,.52.53.52.52,0,0,1-.55.5.5.5,0,0,1-.49-.51A.52.52,0,0,1,112.29,80.21Z"/><path class="cls-2" d="M112.81,77.47a.52.52,0,0,1-.53.52.51.51,0,0,1-.51-.5.5.5,0,0,1,.51-.53A.52.52,0,0,1,112.81,77.47Z"/><path class="cls-2" d="M112.29,84.5a.5.5,0,0,1-.52-.51.52.52,0,0,1,.52-.52.53.53,0,0,1,.52.51A.51.51,0,0,1,112.29,84.5Z"/><path class="cls-2" d="M124.28,84.5a.51.51,0,0,1-.51-.53.52.52,0,0,1,.55-.5.52.52,0,0,1,0,1Z"/><path class="cls-2" d="M124.81,82.39a.52.52,0,1,1-.5-.54A.51.51,0,0,1,124.81,82.39Z"/><path class="cls-2" d="M113.78,74.66a.52.52,0,1,1,0,1,.52.52,0,0,1,0-1Z"/><path class="cls-2" d="M118.3,72.89a.52.52,0,0,1,.5.51.51.51,0,0,1-.54.51.52.52,0,0,1-.5-.52A.51.51,0,0,1,118.3,72.89Z"/><path class="cls-2" d="M118.3,74.31a.51.51,0,1,1,0,1,.52.52,0,0,1-.5-.52A.51.51,0,0,1,118.3,74.31Z"/><path class="cls-2" d="M118.3,75.78a.52.52,0,0,1,.5.52.5.5,0,0,1-.54.5.52.52,0,0,1-.5-.52A.51.51,0,0,1,118.3,75.78Z"/><path class="cls-2" d="M118.27,83.08a.53.53,0,0,1-.5-.52.53.53,0,0,1,.53-.52.55.55,0,0,1,.51.52A.53.53,0,0,1,118.27,83.08Z"/><path class="cls-2" d="M123.31,80a.5.5,0,0,1-.52.52.51.51,0,0,1-.52-.52.52.52,0,0,1,1,0Z"/><path class="cls-2" d="M112.28,86.13a.5.5,0,0,1-.51-.52.52.52,0,0,1,1,0A.5.5,0,0,1,112.28,86.13Z"/><path class="cls-2" d="M111.77,82.32a.52.52,0,1,1,.49.55A.5.5,0,0,1,111.77,82.32Z"/><path class="cls-2" d="M122.76,82.14a.51.51,0,0,1-.49-.55.52.52,0,0,1,.56-.47.51.51,0,1,1-.07,1Z"/><path class="cls-2" d="M124.81,85.62a.52.52,0,0,1-1,0,.54.54,0,0,1,.52-.51A.53.53,0,0,1,124.81,85.62Z"/><path class="cls-2" d="M113.78,81.12a.51.51,0,0,1,.53.51.53.53,0,0,1-.53.52.52.52,0,0,1,0-1Z"/><path class="cls-2" d="M118.29,83.58a.51.51,0,1,1-.52.52A.5.5,0,0,1,118.29,83.58Z"/><path class="cls-2" d="M113.27,80a.51.51,0,0,1,.52-.52.53.53,0,0,1,.52.51.51.51,0,0,1-.52.52A.5.5,0,0,1,113.27,80Z"/><path class="cls-2" d="M126.56,84.84v-4h0c0-.76,0-1.52,0-2.29a4.23,4.23,0,0,0-.11-.87,8.21,8.21,0,0,0-10.85-6.26,7.79,7.79,0,0,0-5.49,7A12.32,12.32,0,0,0,110,80h0v4.49h0V93.3a7.55,7.55,0,0,0,.64,3.19,7.94,7.94,0,0,0,7.23,5,8.07,8.07,0,0,0,8-5c0-.1.15-.2,0-.33s.06-.19.11-.29.19-.21.22-.33a8.07,8.07,0,0,0,.33-2.39V84.84Zm-1.35,8.48a6.93,6.93,0,0,1-13.67,1.53,7.3,7.3,0,0,1-.17-1.48c0-1.78,0-3.56,0-5.34,0-.06,0-.13,0-.23H125.2a2.45,2.45,0,0,1,0,.27C125.22,89.82,125.23,91.57,125.21,93.32Zm0-7.12c0,.18,0,.25-.23.25H111.54l-.17,0c0-.1,0-.19,0-.28,0-2.31,0-4.62,0-6.94a6.93,6.93,0,0,1,13.85-.13C125.24,81.45,125.21,83.83,125.22,86.2Z"/><g class="cls-3"><g class="cls-4"><path class="cls-2" d="M78.78,9.12a65,65,0,1,0,65,65A65,65,0,0,0,78.78,9.12Zm0,126.15A61.13,61.13,0,1,1,139.9,74.14,61.13,61.13,0,0,1,78.78,135.27Z"/></g></g><text class="cls-5" transform="translate(61.47 143.27)">360</text></svg>