<svg id="Capa_3" data-name="Capa 3" xmlns="http://www.w3.org/2000/svg" viewBox="0 0 240.81 257.64"><defs><style>.cls-1{fill:#e02310;}</style></defs><path class="cls-1" d="M96.3,152.38v-2.74q0-22.9,0-45.81a10.35,10.35,0,0,1,.45-3.53,3.91,3.91,0,0,1,4.47-2.68,4.11,4.11,0,0,1,3.77,3.65,9.87,9.87,0,0,1,.07,1.54v68.47c0,.34,0,.68,0,1a4.16,4.16,0,0,1-3.47,4.21,4.07,4.07,0,0,1-4.74-2.27c-1.65-3.1-3.16-6.27-4.74-9.41L71.64,123.92A6,6,0,0,0,70,121.66v48.65a15.86,15.86,0,0,1-.09,2.58,4.35,4.35,0,0,1-8.64-.19,15.45,15.45,0,0,1,0-1.8V102.69c-.14-2.55.91-4.34,3.42-5.06,2.08-.59,4,.54,5.28,3.08,3.66,7.28,7.27,14.56,10.91,21.84q7.46,15,14.93,29.89c.19,0,.36-.05.55-.06" transform="translate(-15.48 -11.26)"/><path class="cls-1" d="M34.87,137c0-12.69,0-25.39,0-38.08,0-12.86,5.63-22.29,16.77-28.58q34.05-19.2,68-38.47c10.67-6,21.39-6.23,32.07-.22q34.71,19.53,69.34,39.26C231.44,76.82,236.82,86,236.86,98q.15,39.11,0,78.23c0,12-5.39,21.15-15.75,27.08q-34.71,19.85-69.59,39.38c-10.49,5.9-21.12,5.75-31.6-.15q-34.37-19.4-68.69-38.88c-10.76-6.1-16.32-15.34-16.36-27.76,0-12.95,0-25.91,0-38.87m193.24.11c0-12.87,0-25.74,0-38.61,0-9-3.93-15.77-11.78-20.22Q182.13,58.86,147.9,39.5c-8.09-4.59-16-4.54-24.14.08Q89.92,58.86,56,77.93c-8.34,4.68-12.39,11.61-12.35,21.2q.15,38,0,75.91c0,9.6,4,16.53,12.34,21.21q33.84,19,67.57,38.23c8.28,4.72,16.32,4.79,24.6.08q33.94-19.34,68-38.5c8-4.54,12.05-11.35,12-20.62-.07-12.79,0-25.57,0-38.35" transform="translate(-15.48 -11.26)"/><path class="cls-1" d="M130.85,268.9c-4.2-1-8.65-1.51-12.54-3.25-6.86-3-13.47-6.71-20-10.38-19.35-10.87-38.82-21.52-57.86-32.91-15.9-9.5-24.29-24.2-24.6-42.68q-.68-39.6,0-79.21c.32-18.38,8.63-33.1,24.49-42.49q35-20.71,70.8-40.12c17-9.28,34.43-8.57,51.35.88C179.78,28.41,197,38.25,214.28,48c5.61,3.17,11.32,6.19,16.79,9.6C247,67.55,255.64,82,256,100.71q.66,39.35,0,78.71c-.3,18.69-8.69,33.57-24.82,43.09-23.44,13.82-47.28,26.94-71,40.29a47.63,47.63,0,0,1-17.85,5.67,9.25,9.25,0,0,0-1.39.43ZM247.52,140.15c0-12.4.06-24.81,0-37.21-.11-17.18-7.45-30.34-22.42-38.9q-33.69-19.26-67.55-38.22c-14.47-8.1-29.12-8-43.56.15C91.78,38.43,69.68,51.06,47.51,63.56c-15.58,8.78-23.25,22.11-23.26,39.92,0,24.56,0,49.12,0,73.68,0,17.51,7.66,30.7,22.92,39.37Q80.28,235.31,113.43,254c14.78,8.33,29.72,8.5,44.51.24q33.66-18.79,67.11-38c15-8.56,22.32-21.7,22.45-38.88.09-12.4,0-24.8,0-37.21" transform="translate(-15.48 -11.26)"/><path class="cls-1" d="M127.21,106.29v26.39H138.5c2,0,3.95-.06,5.92,0,2.86.15,4.68,2,4.61,4.49a4.34,4.34,0,0,1-4.59,4.24c-5.14.11-10.29.05-15.44.06-.51,0-1,.07-1.89.14v2.75q0,13.13,0,26.26a9.87,9.87,0,0,1-.35,3,4,4,0,0,1-4.35,2.89,4.13,4.13,0,0,1-4-3.71,13.78,13.78,0,0,1-.07-2.32q0-33.45,0-66.92c0-4.78,1.34-6.12,6.11-6.12h31.66c.52,0,1,0,1.55,0,2.83.21,4.61,2,4.52,4.58s-1.81,4.15-4.59,4.16c-8,.06-16,0-23.94,0Z" transform="translate(-15.48 -11.26)"/><path class="cls-1" d="M184.24,106.29c-4.23,0-8.17,0-12.09,0-3.6,0-5.45-1.52-5.44-4.37s1.94-4.4,5.46-4.41q16.49,0,33,0a7.36,7.36,0,0,1,3,.55,4.3,4.3,0,0,1-1.83,8.17c-4.27.06-8.56,0-13.26,0v63.61c0,.77,0,1.54,0,2.32a4.37,4.37,0,1,1-8.74-.1c0-.76,0-1.54,0-2.32V106.29Z" transform="translate(-15.48 -11.26)"/></svg>